<?xml version="1.0" standalone="no"?>
<!DOCTYPE svg PUBLIC "-//W3C//DTD SVG 1.1//EN" "http://www.w3.org/Graphics/SVG/1.1/DTD/svg11.dtd" >
<svg xmlns="http://www.w3.org/2000/svg" xmlns:xlink="http://www.w3.org/1999/xlink" version="1.1" viewBox="-10 0 1220 1000">
   <path fill="currentColor"
d="M935 518q-29 -185 -64 -273q-32 -81 -95 -128.5t-146 -47.5q-214 -2 -283 173q-31 77 -67 275q-21 121 -43 241q-18 86 -121 86q-31 0 -73 -7q-3 8 -3 17q0 54 116 69q17 2 34 2q60 0 126 -28t98 -27q38 0 86.5 34t98.5 34q49 1 107 -26q55 -25 95 -22q31 3 82 31
q47 25 119 26q45 -2 78 -14q78 -29 84 -102q-30 31 -72 31q-70 0 -98 -76.5t-59 -267.5zM461 369q-18 0 -30.5 -12.5t-12.5 -30.5t12.5 -30.5t30.5 -12.5t31 12.5t13 30.5t-13 30.5t-31 12.5zM553 533q-50 -19 -50 -60q0 -10 4 -22q31 40 92 40q31 0 61 -10q-31 54 -85 54
q-12 0 -22 -2zM739 402q-18 0 -30.5 -13t-12.5 -31t12.5 -30.5t30.5 -12.5t31 12.5t13 30.5t-13 31t-31 13z" />
</svg>
