<svg version="1.1" x="0px" y="0px" viewBox="0 0 90 90" enable-background="new 0 0 90 90" xmlns="http://www.w3.org/2000/svg">
  <defs></defs>
  <g transform="matrix(1, 0, 0, 1, -5, -5.4)">
    <circle cx="11.5" cy="11.9" r="6.5"></circle>
    <circle cx="30.8" cy="11.9" r="6.5"></circle>
    <circle cx="50" cy="11.9" r="6.5"></circle>
    <circle cx="11.5" cy="37.3" r="6.5"></circle>
    <circle cx="30.8" cy="37.3" r="6.5"></circle>
    <circle cx="50" cy="37.3" r="6.5"></circle>
    <g>
      <circle cx="21.1" cy="24.9" r="6.5"></circle>
      <circle cx="40.4" cy="24.9" r="6.5"></circle>
    </g>
    <circle cx="11.5" cy="37.3" r="6.5"></circle>
    <circle cx="30.8" cy="37.3" r="6.5"></circle>
    <circle cx="50" cy="37.3" r="6.5"></circle>
    <circle cx="11.5" cy="62.7" r="6.5"></circle>
    <circle cx="30.8" cy="62.7" r="6.5"></circle>
    <circle cx="50" cy="62.7" r="6.5"></circle>
    <g>
      <circle cx="21.1" cy="50.3" r="6.5"></circle>
      <circle cx="40.4" cy="50.3" r="6.5"></circle>
    </g>
    <circle cx="50" cy="11.9" r="6.5"></circle>
    <circle cx="69.2" cy="11.9" r="6.5"></circle>
    <circle cx="88.5" cy="11.9" r="6.5"></circle>
    <circle cx="50" cy="37.3" r="6.5"></circle>
    <circle cx="69.2" cy="37.3" r="6.5"></circle>
    <circle cx="88.5" cy="37.3" r="6.5"></circle>
    <g>
      <circle cx="59.6" cy="24.9" r="6.5"></circle>
      <circle cx="78.9" cy="24.9" r="6.5"></circle>
    </g>
    <circle cx="50" cy="37.3" r="6.5"></circle>
    <circle cx="69.2" cy="37.3" r="6.5"></circle>
    <circle cx="88.5" cy="37.3" r="6.5"></circle>
    <circle cx="50" cy="62.7" r="6.5"></circle>
    <circle cx="69.2" cy="62.7" r="6.5"></circle>
    <circle cx="88.5" cy="62.7" r="6.5"></circle>
    <g>
      <circle cx="59.6" cy="50.3" r="6.5"></circle>
      <circle cx="78.9" cy="50.3" r="6.5"></circle>
    </g>
    <circle cx="11.5" cy="62.7" r="6.5"></circle>
    <circle cx="30.8" cy="62.7" r="6.5"></circle>
    <circle cx="50" cy="62.7" r="6.5"></circle>
    <circle cx="11.5" cy="88.1" r="6.5"></circle>
    <circle cx="30.8" cy="88.1" r="6.5"></circle>
    <circle cx="50" cy="88.1" r="6.5"></circle>
    <g>
      <circle cx="21.1" cy="75.8" r="6.5"></circle>
      <circle cx="40.4" cy="75.8" r="6.5"></circle>
    </g>
    <circle cx="11.5" cy="88.1" r="6.5"></circle>
    <circle cx="30.8" cy="88.1" r="6.5"></circle>
    <circle cx="50" cy="88.1" r="6.5"></circle>
    <circle cx="50" cy="62.7" r="6.5"></circle>
    <circle cx="69.2" cy="62.7" r="6.5"></circle>
    <circle cx="88.5" cy="62.7" r="6.5"></circle>
    <circle cx="50" cy="88.1" r="6.5"></circle>
    <circle cx="69.2" cy="88.1" r="6.5"></circle>
    <circle cx="88.5" cy="88.1" r="6.5"></circle>
    <g>
      <circle cx="59.6" cy="75.8" r="6.5"></circle>
      <circle cx="78.9" cy="75.8" r="6.5"></circle>
    </g>
    <circle cx="50" cy="88.1" r="6.5"></circle>
    <circle cx="69.2" cy="88.1" r="6.5"></circle>
    <circle cx="88.5" cy="88.1" r="6.5"></circle>
  </g>
</svg>