<svg version="1.1" x="0px" y="0px" viewBox="0 0 10 12.5" style="enable-background:new 0 0 10 10;" xmlns="http://www.w3.org/2000/svg">
  <defs></defs>
  <g>
    <path d="M3.829,7.135C3.829,7.78,4.354,8.306,5,8.306c0.646,0,1.172-0.525,1.172-1.171V3.791H3.829V7.135z M4.062,4.024h1.877   v3.111c0,0.517-0.421,0.938-0.939,0.938S4.062,7.651,4.062,7.135V4.024z"></path>
    <path d="M5,5.466c0.244,0,0.441-0.198,0.441-0.441c0-0.243-0.198-0.441-0.441-0.441c-0.243,0-0.441,0.198-0.441,0.441   C4.559,5.268,4.757,5.466,5,5.466z M5,4.816c0.115,0,0.208,0.093,0.208,0.208S5.115,5.233,5,5.233S4.792,5.14,4.792,5.024   S4.885,4.816,5,4.816z"></path>
    <path d="M6.352,2.253c-0.745-0.746-1.958-0.746-2.703,0c-0.046,0.045-0.046,0.119,0,0.164c0.045,0.046,0.119,0.046,0.165,0   c0.654-0.654,1.72-0.654,2.375,0C6.21,2.44,6.24,2.451,6.27,2.451S6.328,2.44,6.352,2.417C6.396,2.372,6.396,2.298,6.352,2.253z"></path>
    <path d="M5.746,2.975c0.03,0,0.06-0.012,0.082-0.034c0.045-0.045,0.045-0.119,0-0.165C5.607,2.555,5.313,2.433,5,2.433   c-0.313,0-0.607,0.122-0.828,0.343c-0.045,0.045-0.045,0.119,0,0.165s0.119,0.045,0.165,0C4.514,2.764,4.75,2.666,5,2.666   c0.251,0,0.486,0.098,0.664,0.275C5.687,2.963,5.716,2.975,5.746,2.975z"></path>
    <path d="M5,3.099c-0.135,0-0.262,0.053-0.357,0.148c-0.045,0.046-0.045,0.119,0,0.165c0.022,0.022,0.052,0.034,0.082,0.034   s0.06-0.011,0.082-0.034c0.106-0.106,0.279-0.106,0.386,0c0.045,0.045,0.119,0.045,0.165,0s0.045-0.119,0-0.165   C5.262,3.152,5.135,3.099,5,3.099L5,3.099z"></path>
  </g>
</svg>