<svg version="1.1" x="0px" y="0px" viewBox="0 0 100 100" enable-background="new 0 0 100 100" xmlns="http://www.w3.org/2000/svg">
  <defs></defs>
  <path d="M 7.846 28.104 C 7.846 28.104 7.846 28.105 7.846 28.105 C 7.846 28.106 7.847 28.107 7.847 28.108 L 7.847 28.11 C 7.847 28.11 7.847 28.112 7.848 28.113 C 7.847 28.112 7.848 28.111 7.848 28.111 C 7.849 28.115 7.852 28.118 7.852 28.122 C 7.854 28.125 7.854 28.13 7.856 28.135 C 7.856 28.135 7.856 28.135 7.856 28.135 L 7.856 28.135 L 7.856 28.135 L 7.856 28.135 C 7.853 28.132 7.856 28.145 7.857 28.139 C 7.856 28.138 7.856 28.137 7.856 28.136 C 7.856 28.137 7.856 28.137 7.856 28.137 L 7.856 28.137 L 7.856 28.137 L 7.856 28.137 C 8.658 30.862 9.512 33.571 11.691 36.234 C 12.778 37.564 13.035 39.375 13.612 40.941 C 14.394 43.04 15.912 44.846 17.134 46.698 C 18.6 48.925 19.268 52.516 21.538 54.033 C 22.346 54.571 21.697 55.176 21.516 56.072 C 20.99 58.701 21.676 61.304 22.488 63.79 C 23.435 66.693 24.35 69.472 25.618 72.262 C 26.073 73.262 26.373 74.03 27.303 74.673 C 29.061 75.887 27.745 79.101 27.702 80.752 C 27.699 80.903 27.696 81.058 27.69 81.215 C 27.686 81.382 27.683 81.553 27.67 81.713 C 27.671 81.852 27.673 81.961 27.679 82.041 C 27.667 82.808 27.67 83.63 27.704 84.474 C 27.704 84.519 27.703 84.564 27.703 84.612 C 27.708 84.66 27.714 84.707 27.719 84.755 C 27.768 85.734 27.863 86.738 28.033 87.716 C 28.078 88.111 28.103 88.38 28.079 88.433 C 28.216 88.942 28.123 88.341 28.144 88.285 C 28.16 88.355 28.172 88.427 28.188 88.498 C 28.223 88.688 28.283 88.978 28.355 89.27 C 28.473 89.762 28.633 90.242 28.633 90.242 C 28.673 90.29 28.691 90.281 28.693 90.231 C 29.036 91.161 29.489 92.014 30.093 92.732 C 32.903 96.075 33.967 96.408 37.427 95.302 C 38.128 95.08 38.899 94.763 39.813 94.51 C 40.029 94.486 40.775 94.327 41.277 94.3 C 42.273 94.126 43.526 94.091 44.796 94.323 C 45.426 94.468 46.022 94.784 46.572 95.15 C 47.123 95.517 47.634 95.94 48.115 96.364 C 49.077 97.213 49.94 98.058 50.752 98.61 C 51.165 98.891 51.562 99.077 51.898 99.2 C 52.371 99.386 52.92 99.533 53.615 99.651 C 57.061 100.241 59.625 98.712 61.706 96.442 C 62.139 96.079 62.394 95.871 62.452 95.923 C 61.949 96.487 61.14 97.292 60.345 97.906 C 59.558 98.53 58.788 98.947 58.612 99.117 C 59.314 98.81 60.191 98.232 60.854 97.672 C 61.522 97.116 62.002 96.617 62.086 96.602 C 62.538 95.949 62.066 96.491 61.602 96.956 C 61.37 97.19 61.14 97.402 61.057 97.462 C 60.972 97.521 61.045 97.437 61.384 97.049 C 62.13 96.292 62.451 95.967 62.787 95.604 C 62.535 95.856 62.665 95.651 62.867 95.347 C 63.071 95.042 63.34 94.631 63.416 94.491 C 64.403 93.098 65.071 91.932 65.763 90.749 C 66.108 90.157 66.451 89.554 66.844 88.917 C 67.237 88.28 67.706 87.622 68.249 86.892 C 68.265 86.862 68.284 86.827 68.304 86.792 C 68.764 86.178 69.229 85.568 69.665 84.946 C 69.856 84.718 70.039 84.497 70.198 84.302 C 70.696 83.698 71.001 83.317 70.883 83.64 C 71.416 82.714 71.606 82.172 71.772 81.674 C 71.854 81.423 71.926 81.179 71.999 80.888 C 72.08 80.589 72.138 80.255 72.266 79.848 C 72.192 80.186 72.16 80.429 72.129 80.612 C 72.096 80.795 72.078 80.897 72.071 80.936 C 72.057 81.014 72.104 80.845 72.16 80.574 C 72.214 80.313 72.288 79.972 72.387 79.687 C 72.484 79.402 72.6 79.181 72.667 79.137 C 72.84 78.763 72.98 78.576 73.056 78.458 C 73.135 78.34 73.155 78.299 73.154 78.279 C 73.156 78.238 73.067 78.27 73.32 77.974 C 73.523 77.779 74.11 77.407 74.18 77.424 C 74.588 77.071 74.101 77.277 73.653 77.524 C 73.429 77.645 73.22 77.783 73.117 77.828 C 73.065 77.851 73.038 77.849 73.049 77.806 C 73.356 77.49 73.734 77.193 74.215 76.876 C 74.609 76.617 74.923 76.337 75.189 76.042 L 75.227 76.101 C 75.227 76.101 75.315 76.002 75.399 75.899 C 75.483 75.797 75.562 75.689 75.562 75.689 C 75.562 75.689 75.506 75.714 75.433 75.744 C 75.983 75.019 76.283 74.199 76.613 73.299 C 76.648 73.314 76.681 73.335 76.708 73.37 C 76.843 73.548 76.911 73.975 76.736 74.646 C 76.812 74.598 76.961 74.166 77.097 73.669 C 77.235 73.175 77.392 72.594 77.532 72.268 C 77.709 71.8 78.008 71.423 78.314 71.091 C 78.623 70.759 78.944 70.466 79.247 70.145 C 79.548 69.825 79.841 69.463 80.057 69.028 C 80.26 68.635 80.42 68.163 80.547 67.734 C 80.547 67.734 80.408 68.076 80.265 68.419 C 80.19 68.596 80.103 68.772 80.037 68.902 C 79.965 69.034 79.919 69.121 79.919 69.121 C 79.953 69.03 80.053 68.811 80.176 68.496 C 80.297 68.186 80.413 67.779 80.553 67.464 C 80.819 66.853 81.45 66.35 81.618 66.214 C 81.625 66.17 81.317 66.361 81.094 66.495 C 80.874 66.629 80.707 66.706 80.965 66.363 C 81.54 65.74 82.218 65.22 82.811 64.684 C 83.11 64.418 83.392 64.144 83.636 63.87 C 83.873 63.614 84.112 63.384 84.332 63.171 C 85.224 62.328 85.806 61.778 85.804 61.918 C 85.804 61.918 85.582 62.178 85.241 62.552 C 84.902 62.927 84.425 63.408 83.992 63.876 C 83.88 64.001 83.772 64.126 83.661 64.248 C 83.543 64.376 83.424 64.497 83.306 64.61 C 83.071 64.837 82.849 65.032 82.656 65.198 C 82.274 65.518 82.018 65.733 82.018 65.733 C 82.009 65.789 82.18 65.67 82.45 65.46 C 82.719 65.246 83.092 64.939 83.45 64.59 C 83.625 64.423 83.809 64.221 83.949 64.064 C 84.088 63.913 84.226 63.774 84.344 63.661 C 84.584 63.43 84.746 63.296 84.742 63.364 C 84.742 63.364 84.945 63.132 85.248 62.78 C 85.552 62.424 85.948 61.937 86.321 61.429 C 87.074 60.416 87.694 59.322 87.694 59.322 C 87.532 59.595 87.183 60.136 86.903 60.511 C 86.622 60.888 86.424 61.106 86.612 60.773 C 87.227 59.892 87.35 59.64 87.441 59.474 C 87.523 59.304 87.559 59.209 87.878 58.57 C 87.22 59.603 86.137 60.974 84.966 62.079 C 84.794 62.246 84.622 62.407 84.448 62.564 C 85.152 61.769 86.018 60.732 86.936 59.223 C 86.992 59.154 87.049 59.082 87.103 59.014 C 87.89 58.016 88.46 57.211 88.713 56.847 C 88.907 56.409 89.009 56.109 89.056 55.912 C 89.102 55.714 89.089 55.644 89.055 55.612 C 88.982 55.558 88.792 55.773 88.674 55.969 C 88.849 55.537 89.033 55.188 89.225 54.881 C 89.414 54.574 89.591 54.312 89.757 54.077 C 90.088 53.606 90.372 53.24 90.645 52.862 C 90.918 52.484 91.19 52.1 91.471 51.567 C 91.609 51.3 91.752 50.995 91.874 50.624 C 91.99 50.253 92.106 49.81 92.074 49.251 C 92.074 49.251 92.086 49.355 92.089 49.51 C 92.09 49.663 92.079 49.866 92.052 50.06 C 91.998 50.451 91.886 50.812 91.886 50.812 C 91.966 50.59 92.092 50.208 92.138 49.72 C 92.161 49.478 92.159 49.205 92.106 48.925 C 92.053 48.644 91.938 48.358 91.773 48.12 C 91.439 47.636 90.983 47.401 90.707 47.275 C 90.422 47.151 90.275 47.109 90.373 47.124 C 89.958 47.03 89.569 47.038 89.381 47.084 C 89.232 47.128 89.239 47.164 89.47 47.227 C 89.38 47.209 89.265 47.188 89.127 47.172 C 88.797 47.131 88.349 47.136 87.914 47.201 C 87.476 47.264 87.05 47.38 86.739 47.485 C 86.427 47.589 86.225 47.674 86.225 47.674 C 86.7 47.478 86.498 47.842 86.712 47.792 C 86.094 48.071 85.572 48.319 85.275 48.421 C 84.982 48.527 84.909 48.471 85.267 48.214 C 84.722 48.619 84.378 48.929 84.121 49.165 C 83.865 49.403 83.699 49.571 83.545 49.731 C 83.395 49.893 83.259 50.045 83.082 50.269 C 82.908 50.494 82.684 50.787 82.411 51.26 C 82.185 51.582 82.143 51.537 82.192 51.34 C 82.241 51.142 82.408 50.799 82.59 50.563 C 81.972 51.252 81.618 51.916 81.364 52.455 C 81.114 53.001 80.962 53.452 80.834 53.855 C 81.103 53.169 81.322 52.801 81.464 52.623 C 81.612 52.444 81.688 52.455 81.733 52.528 C 81.768 52.587 81.786 52.687 81.807 52.773 C 81.543 53.353 81.32 53.964 81.122 54.577 C 80.965 54.919 80.807 55.289 80.65 55.66 C 80.351 56.38 80.043 57.078 79.821 57.635 C 79.712 57.913 79.629 58.17 79.594 58.38 C 79.557 58.591 79.567 58.736 79.567 58.736 C 79.567 58.579 79.647 58.354 79.741 58.209 C 79.831 58.059 79.921 57.963 79.929 57.983 C 79.901 58.026 79.858 58.13 79.818 58.296 C 79.782 58.456 79.745 58.714 79.834 59.014 C 79.923 59.31 80.094 59.567 80.263 59.836 C 80.352 59.971 80.443 60.112 80.54 60.258 C 80.437 60.25 80.326 60.237 80.191 60.208 C 80.018 60.175 79.814 60.13 79.57 60.132 C 79.313 60.132 79.041 60.207 78.819 60.361 C 78.333 60.693 77.923 61.09 77.543 61.524 C 77.168 61.961 76.835 62.432 76.579 62.952 C 76.453 63.208 76.346 63.491 76.283 63.77 C 76.219 64.044 76.186 64.306 76.162 64.556 C 76.116 65.055 76.111 65.51 76.095 65.903 L 76.117 65.386 C 76.155 65.13 76.171 65.367 76.171 65.814 C 76.167 66.036 76.164 66.318 76.125 66.587 C 76.115 66.678 76.084 66.78 76.062 66.834 C 76.036 66.818 75.987 66.783 75.948 66.753 C 75.839 66.667 75.734 66.594 75.636 66.53 C 75.514 66.468 75.427 66.402 75.296 66.386 C 75.163 66.369 75.03 66.439 74.941 66.518 C 74.751 66.681 74.632 66.89 74.526 67.1 C 74.475 67.206 74.427 67.313 74.381 67.419 C 74.344 67.517 74.304 67.611 74.266 67.704 C 74.201 67.868 74.14 68.024 74.08 68.178 C 73.961 68.486 73.848 68.783 73.742 69.097 C 73.689 69.252 73.637 69.409 73.581 69.578 C 73.558 69.655 73.528 69.736 73.501 69.818 C 73.485 69.861 73.478 69.884 73.468 69.904 C 73.46 69.927 73.447 69.946 73.433 69.967 C 73.394 70.027 73.354 70.087 73.313 70.151 C 73.27 70.22 73.228 70.29 73.181 70.363 C 73.095 70.509 73.009 70.663 72.921 70.829 C 73.029 70.66 73.128 70.504 73.217 70.361 C 73.265 70.291 73.312 70.224 73.354 70.159 C 73.394 70.1 73.433 70.043 73.471 69.992 C 73.498 69.959 73.513 69.92 73.528 69.884 C 73.548 69.824 73.567 69.768 73.587 69.716 C 73.623 69.598 73.658 69.494 73.685 69.402 C 73.745 69.212 73.793 69.069 73.832 68.97 C 73.911 68.769 73.956 68.735 73.979 68.787 C 73.926 68.975 73.863 69.189 73.795 69.424 C 73.763 69.537 73.728 69.654 73.69 69.776 C 73.672 69.834 73.653 69.896 73.634 69.941 C 73.617 69.982 73.599 70.024 73.571 70.059 C 73.027 70.823 72.5 71.734 72.062 72.268 C 72 72.345 71.972 72.378 71.939 72.415 C 71.907 72.45 71.877 72.481 71.848 72.507 C 71.793 72.559 71.746 72.594 71.713 72.609 C 71.646 72.641 71.64 72.592 71.673 72.482 C 71.633 72.533 71.594 72.59 71.546 72.633 C 71.498 72.68 71.428 72.695 71.377 72.666 C 71.277 72.607 71.23 72.504 71.186 72.429 C 71.105 72.275 71.05 72.166 70.998 72.216 C 70.998 72.216 70.935 71.975 70.843 71.616 C 70.795 71.419 70.739 71.191 70.662 70.931 C 70.64 70.863 70.617 70.798 70.591 70.726 C 70.58 70.695 70.564 70.65 70.544 70.603 C 70.523 70.56 70.503 70.517 70.479 70.475 C 70.395 70.301 70.213 70.159 70.134 70.075 C 69.731 69.685 69.308 69.336 69.001 69.076 C 68.696 68.818 68.494 68.646 68.494 68.646 C 68.608 68.755 68.707 68.866 68.654 68.855 C 68.606 68.843 68.394 68.716 67.923 68.328 C 68.384 68.703 68.844 69.078 69.285 69.44 C 69.51 69.625 69.729 69.816 69.936 70.011 L 70.091 70.158 C 70.148 70.216 70.206 70.271 70.261 70.326 C 70.391 70.452 70.467 70.65 70.518 70.787 C 70.614 71.06 70.674 71.306 70.738 71.541 C 70.798 71.771 70.861 71.999 70.919 72.187 C 71.009 72.458 71.113 72.691 71.253 72.782 C 71.23 72.909 71.112 72.875 71.048 72.882 C 71.017 72.889 70.997 72.915 71.013 73.009 C 71.022 73.057 71.041 73.122 71.082 73.206 C 71.124 73.282 71.191 73.401 71.329 73.45 C 71.183 73.426 71.086 73.302 71.013 73.19 C 70.94 73.072 70.883 72.948 70.834 72.824 C 70.736 72.569 70.669 72.337 70.599 72.084 C 70.536 71.832 70.473 71.586 70.411 71.349 C 70.344 71.106 70.293 70.881 70.17 70.638 C 70.113 70.521 69.999 70.438 69.925 70.355 C 69.843 70.276 69.76 70.196 69.678 70.118 C 69.513 69.962 69.349 69.816 69.189 69.672 C 68.867 69.387 68.553 69.121 68.264 68.855 C 68.119 68.724 67.98 68.592 67.847 68.459 C 67.716 68.329 67.573 68.191 67.481 68.072 C 67.284 67.82 67.157 67.519 67.041 67.192 C 66.923 66.866 66.821 66.51 66.646 66.143 C 66.559 65.959 66.452 65.773 66.316 65.596 C 66.248 65.507 66.172 65.421 66.091 65.34 C 66.012 65.26 65.896 65.168 65.798 65.104 C 65.798 65.104 65.725 65.062 65.6 65.003 C 65.476 64.945 65.304 64.881 65.107 64.819 C 64.714 64.693 64.209 64.585 63.787 64.427 C 63.58 64.352 63.39 64.244 63.318 64.172 C 63.223 64.088 63.176 63.969 63.17 63.867 C 63.167 63.815 63.171 63.768 63.179 63.726 C 63.187 63.679 63.201 63.625 63.214 63.586 C 63.239 63.504 63.26 63.454 63.26 63.454 C 63.26 63.454 63.293 63.429 63.325 63.403 C 63.358 63.372 63.396 63.34 63.396 63.34 L 63.538 62.613 C 63.792 62.162 63.949 61.868 63.977 61.761 C 63.999 61.666 63.927 61.78 63.822 61.957 C 64 61.557 64.163 61.195 64.248 61.006 C 64.215 60.82 63.867 61.475 63.461 62.14 C 63.343 62.492 63.214 62.849 63.077 63.206 C 62.852 63.532 62.771 63.836 62.748 63.947 C 62.742 63.969 62.735 63.978 62.726 63.98 C 62.703 63.767 62.752 63.512 62.903 63.201 C 63.015 62.97 63.118 62.751 63.216 62.535 C 63.296 62.41 63.377 62.277 63.46 62.138 C 63.498 62.024 63.533 61.911 63.571 61.8 C 63.505 61.93 63.443 62.055 63.379 62.178 C 63.475 61.962 63.567 61.748 63.651 61.542 C 63.625 61.625 63.599 61.711 63.571 61.8 C 64.018 60.924 64.4 59.934 64.603 59.374 C 64.805 58.816 64.905 58.705 64.746 59.588 C 64.746 59.588 64.879 58.991 64.968 58.392 C 65.063 57.796 65.125 57.198 65.125 57.198 C 65.201 56.844 65.265 56.582 65.342 56.341 C 65.416 56.104 65.492 55.902 65.562 55.723 C 65.705 55.366 65.831 55.093 65.965 54.802 C 66.105 54.509 66.253 54.196 66.458 53.767 C 66.658 53.328 66.937 52.768 67.206 51.895 C 67.199 51.692 66.888 52.596 67.019 51.965 C 67.13 51.657 67.219 51.32 67.271 50.961 C 67.326 50.604 67.342 50.228 67.332 49.87 C 67.315 49.145 67.192 48.426 67.053 47.798 C 66.916 47.17 66.79 46.625 66.749 46.197 C 66.707 45.771 66.742 45.465 66.798 45.345 C 66.858 44.885 66.958 44.617 67.024 44.452 C 67.094 44.286 67.14 44.221 67.176 44.178 C 67.257 44.092 67.284 44.078 67.562 43.555 C 67.521 43.597 67.432 43.679 67.588 43.367 C 67.588 43.367 67.638 43.289 67.716 43.172 C 67.796 43.048 67.902 42.881 68.002 42.711 C 68.204 42.372 68.389 42.021 68.389 42.021 C 68.598 41.421 67.731 43.31 68.378 41.665 C 68.979 40.282 69.297 39.124 69.514 38.013 C 69.62 37.457 69.695 36.91 69.743 36.346 C 69.753 36.204 69.763 36.062 69.773 35.918 C 69.78 35.782 69.786 35.647 69.796 35.508 C 69.814 35.25 69.849 34.985 69.902 34.707 C 70.094 33.922 70.251 33.62 70.288 33.566 C 70.332 33.511 70.296 33.705 70.261 33.911 C 70.224 34.118 70.191 34.334 70.21 34.337 C 70.232 34.338 70.281 34.133 70.51 33.474 C 70.531 33.261 70.545 33.058 70.638 32.693 C 70.729 32.325 70.917 31.809 71.221 30.907 C 71.413 30.44 71.509 30.235 71.619 29.936 C 71.724 29.632 71.854 29.213 71.919 28.332 L 71.754 28.435 C 71.796 27.63 71.762 26.933 71.735 26.438 C 71.707 25.944 71.673 25.647 71.614 25.642 C 71.63 25.033 71.656 24.535 71.696 24.115 C 71.719 23.906 71.745 23.72 71.771 23.542 C 71.799 23.358 71.827 23.188 71.85 23.031 C 71.983 22.482 72.06 22.316 72.079 22.38 C 72.101 22.446 72.076 22.741 72.039 23.119 C 72.026 23.305 72.001 23.529 71.99 23.721 C 71.978 23.917 71.973 24.119 71.976 24.306 C 71.981 24.684 72.007 25.012 72.024 25.139 C 71.993 24.606 72.004 24.134 72.059 23.71 C 72.123 23.264 72.2 22.825 72.28 22.43 C 72.438 21.631 72.59 20.942 72.666 20.297 C 72.666 20.297 72.528 20.773 72.389 21.252 C 72.256 21.727 72.132 22.204 72.132 22.204 C 72.323 21.17 72.527 20.41 72.694 19.822 C 72.862 19.233 73.001 18.816 73.114 18.465 C 73.333 17.762 73.473 17.329 73.512 16.304 C 73.228 17.779 72.65 19.454 72.799 18.592 C 72.799 18.592 72.96 18.082 73.105 17.566 C 73.255 17.05 73.385 16.525 73.385 16.525 C 73.4 16.27 73.09 17.721 73.257 16.745 C 73.43 16.153 73.729 14.935 73.863 14.393 L 73.848 14.419 C 73.848 14.419 74.012 13.461 74.098 12.477 C 74.14 11.985 74.163 11.485 74.159 11.104 C 74.158 11.009 74.155 10.922 74.151 10.843 C 74.155 11.01 74.147 11.113 74.138 11.142 C 74.122 11.189 74.112 11.045 74.084 10.654 C 74.084 10.654 74.081 10.487 74.055 10.228 C 74.027 9.969 73.979 9.615 73.822 9.236 C 73.738 9.034 73.635 8.874 73.537 8.728 C 73.432 8.582 73.328 8.458 73.232 8.354 C 73.044 8.149 72.9 8.034 72.9 8.034 C 73.229 8.344 73.199 8.363 72.981 8.186 C 72.76 8.017 72.31 7.695 71.71 7.477 C 70.846 7.16 70.153 7.174 69.639 7.262 C 69.119 7.359 68.764 7.522 68.463 7.709 C 68.303 7.81 68.194 7.896 68.07 7.987 C 67.95 8.084 67.825 8.191 67.692 8.321 C 67.431 8.584 67.121 8.948 66.782 9.541 C 66.998 9.209 67.052 9.167 67.297 8.849 C 67.297 8.849 67.09 9.132 66.911 9.432 C 66.73 9.73 66.575 10.041 66.575 10.041 C 66.468 10.061 66.142 10.515 65.83 11.239 C 65.51 11.958 65.231 12.938 65.052 13.913 C 64.869 14.892 64.768 15.863 64.679 16.6 C 64.589 17.338 64.512 17.844 64.418 17.907 C 64.419 18.829 64.435 18.86 64.497 18.373 C 64.56 17.886 64.648 16.863 64.856 15.67 C 64.856 15.67 64.827 16.171 64.81 16.667 C 64.795 17.161 64.781 17.656 64.781 17.656 C 64.853 16.861 64.881 16.184 65.016 15.324 C 64.932 16.635 64.851 17.887 64.725 18.974 C 64.602 20.062 64.425 20.981 64.269 21.632 C 64.212 22.101 64.305 21.93 64.35 21.971 C 64.372 21.992 64.383 22.066 64.346 22.301 C 64.314 22.524 64.208 22.946 64.062 23.64 C 63.31 27.569 63.931 22.853 63.49 25.212 L 63.388 26.935 C 63.069 28.402 62.78 29.641 62.357 30.765 C 62.148 31.325 61.907 31.854 61.622 32.364 C 61.297 32.936 61.022 33.555 60.805 34.197 C 60.59 34.773 60.505 35.059 60.447 35.198 C 60.127 36.595 59.943 38.048 59.762 39.38 C 59.673 40.047 59.585 40.682 59.491 41.27 C 59.412 41.826 59.273 42.254 59.099 42.611 C 59.196 42.451 59.133 42.677 58.983 42.93 C 58.84 43.189 58.577 43.429 58.507 43.496 C 58.507 43.496 58.468 43.517 58.401 43.555 C 58.333 43.59 58.235 43.638 58.108 43.682 C 57.857 43.771 57.495 43.833 57.112 43.813 C 56.729 43.795 56.34 43.704 56.052 43.61 C 55.989 43.59 55.934 43.571 55.882 43.553 C 56.35 43.729 56.606 43.781 56.759 43.84 C 56.946 43.903 56.992 43.953 57.121 44.006 C 56.616 43.993 56.239 43.883 55.914 43.77 C 55.589 43.654 55.314 43.522 54.99 43.357 C 55.372 43.584 55.785 43.772 55.24 43.604 C 55.24 43.604 55.033 43.507 54.739 43.332 C 54.591 43.245 54.424 43.138 54.247 43.015 C 54.158 42.953 54.07 42.888 53.981 42.818 C 53.896 42.753 53.81 42.687 53.73 42.614 C 53.404 42.329 53.141 41.998 52.986 41.732 C 52.905 41.599 52.847 41.483 52.807 41.4 C 52.772 41.318 52.75 41.27 52.75 41.27 C 52.848 41.439 53.044 41.762 53.255 41.998 C 52.987 41.688 52.66 41.124 52.503 40.421 C 52.335 39.723 52.318 38.908 52.313 38.245 C 52.265 38.361 52.217 38.813 52.181 38.926 C 52.309 40.024 52.376 40.594 52.507 41.131 C 52.288 40.571 52.247 40.218 52.208 40.031 C 52.175 39.841 52.169 39.802 52.158 39.807 C 52.145 39.813 52.123 39.994 52.039 39.383 C 51.993 38.479 52.106 37.825 52.181 37.473 C 52.262 37.118 52.327 37.058 52.343 37.303 C 52.441 36.264 52.543 35.563 52.635 34.849 C 52.681 34.492 52.73 34.13 52.774 33.714 C 52.817 33.293 52.863 32.82 52.85 32.221 C 52.85 32.221 52.822 32.336 52.792 32.45 C 52.761 32.563 52.728 32.674 52.728 32.674 C 52.728 32.674 52.731 32.541 52.724 32.339 C 52.721 32.238 52.715 32.12 52.704 31.993 C 52.691 31.873 52.68 31.747 52.667 31.619 C 52.622 31.145 52.611 30.654 52.611 30.654 C 52.611 30.654 52.588 31.053 52.586 31.447 C 52.585 31.643 52.59 31.832 52.593 32.005 C 52.593 32.169 52.589 32.276 52.589 32.276 C 52.568 32.025 52.53 31.789 52.507 31.618 C 52.484 31.436 52.468 31.276 52.456 31.135 C 52.435 30.852 52.432 30.645 52.434 30.49 C 52.437 30.182 52.464 30.079 52.492 29.966 C 52.52 29.85 52.55 29.722 52.559 29.355 C 52.564 28.987 52.582 28.383 52.468 27.277 L 52.345 27.277 C 52.284 26.431 52.219 25.84 52.078 25.302 C 52.01 25.069 51.947 24.847 51.878 24.61 C 51.818 24.387 51.754 24.151 51.685 23.869 C 51.671 23.143 51.738 23.765 51.836 24.115 C 51.886 24.291 51.931 24.406 51.918 24.279 C 51.914 24.147 51.814 23.788 51.858 22.947 C 51.837 22.646 51.869 22.158 51.937 21.591 C 52.004 21.025 52.086 20.377 52.106 19.808 C 52.162 19.174 52.193 19.416 52.189 19.923 C 52.185 20.316 52.126 20.847 52.069 21.24 C 52.159 20.669 52.223 20.152 52.239 19.703 C 52.25 19.442 52.247 19.186 52.238 18.984 C 52.228 18.786 52.222 18.606 52.217 18.44 C 52.189 17.778 52.158 17.361 52.131 16.962 C 52.074 16.162 52.045 15.441 52.307 12.918 C 52.273 14.655 52.642 11.497 52.351 15.58 C 52.548 13.643 52.488 11.729 52.625 9.65 C 52.625 9.65 52.581 9.989 52.54 10.326 C 52.491 10.661 52.443 10.997 52.443 10.997 C 52.47 10.257 52.527 9.415 52.535 9.008 L 52.419 9.179 C 52.505 7.896 52.37 6.691 52.172 5.635 C 52.121 5.373 52.07 5.118 52.017 4.873 C 51.989 4.75 51.961 4.629 51.936 4.51 C 51.907 4.382 51.874 4.259 51.839 4.136 C 51.702 3.656 51.531 3.231 51.377 2.84 C 51.477 3.116 51.455 3.142 51.373 3.01 C 51.299 2.878 51.137 2.594 50.904 2.273 C 50.672 1.952 50.365 1.6 50.04 1.307 C 49.716 1.014 49.377 0.783 49.13 0.661 C 49.6 0.985 50.126 1.43 50.589 1.973 C 51.052 2.513 51.445 3.153 51.693 3.798 C 51.818 4.113 51.907 4.454 51.958 4.726 C 52.018 5.004 52.061 5.259 52.093 5.479 C 52.156 5.92 52.169 6.221 52.128 6.297 C 52.031 5.814 51.96 5.355 51.873 4.9 L 51.804 4.562 C 51.777 4.444 51.745 4.326 51.71 4.209 C 51.639 3.976 51.545 3.748 51.428 3.53 C 51.564 3.848 51.687 4.262 51.742 4.625 C 51.799 4.976 51.834 5.278 51.838 5.405 C 51.747 5.011 51.669 4.645 51.557 4.284 C 51.443 3.93 51.304 3.606 51.149 3.309 C 50.839 2.714 50.473 2.224 50.089 1.807 C 49.702 1.391 49.29 1.046 48.846 0.765 C 48.404 0.487 47.927 0.274 47.403 0.166 C 47.403 0.166 47.638 0.204 47.969 0.316 C 48.299 0.427 48.72 0.619 49.102 0.866 C 49.487 1.111 49.835 1.404 50.074 1.641 C 50.316 1.878 50.46 2.051 50.46 2.051 C 50.439 1.877 50.168 1.561 49.776 1.24 C 49.387 0.917 48.88 0.6 48.421 0.324 C 47.529 0.004 46.625 -0.11 45.787 0.125 C 44.947 0.354 44.279 0.953 43.909 1.644 C 44.02 1.465 44.091 1.376 44.162 1.287 C 44.234 1.2 44.308 1.114 44.457 0.957 C 44.079 1.348 43.841 1.772 43.673 2.163 C 43.507 2.556 43.41 2.924 43.34 3.257 C 43.211 3.925 43.188 4.465 43.178 4.93 C 43.166 5.86 43.234 6.494 43.224 7.237 C 43.213 8.697 43.28 11.461 43.14 10.466 C 43.147 11.065 43.081 9.826 43.044 8.698 C 43.007 7.572 42.998 6.554 42.857 7.631 C 43.007 8.708 43.015 9.806 43.071 11.222 C 43.122 12.635 43.228 14.369 43.596 16.661 C 43.475 14.633 43.898 17.827 43.773 16.018 C 43.828 16.565 43.874 16.99 43.891 17.308 C 43.907 17.657 43.942 17.907 43.963 18.119 C 44.007 18.539 44.032 18.807 44.043 19.276 C 44.043 19.276 44.082 19.431 44.113 19.585 C 44.143 19.737 44.158 19.891 44.158 19.891 C 44.145 19.977 44.131 20.043 44.115 20.127 C 44.097 20.214 44.087 20.294 44.076 20.372 C 44.057 20.526 44.047 20.664 44.043 20.785 C 44.035 21.026 44.045 21.208 44.055 21.351 C 44.073 21.636 44.088 21.776 44.115 21.961 C 44.145 22.147 44.194 22.38 44.327 22.824 C 44.392 23.048 44.481 23.321 44.591 23.664 C 44.644 23.836 44.704 24.024 44.763 24.231 C 44.823 24.439 44.884 24.664 44.921 24.891 C 44.875 24.581 44.861 24.502 44.9 24.569 C 44.934 24.635 45.007 24.829 45.048 25.034 C 45.094 25.238 45.107 25.452 45.112 25.554 C 45.117 25.657 45.142 25.656 45.171 25.414 C 45.175 25.941 44.922 26.43 44.705 26.986 C 44.597 27.262 44.513 27.55 44.463 27.827 C 44.425 28.085 44.39 28.327 44.357 28.551 L 44.384 28.395 C 44.271 29.471 44.121 30.218 44.002 30.81 C 43.884 31.401 43.791 31.833 43.714 32.26 C 43.637 32.687 43.561 33.109 43.498 33.685 C 43.439 34.261 43.391 34.999 43.475 36.033 C 43.475 36.033 43.451 35.933 43.427 35.831 C 43.404 35.729 43.381 35.626 43.381 35.626 C 43.407 36.247 43.499 36.898 43.602 37.519 C 43.654 37.833 43.706 38.153 43.771 38.484 C 43.841 38.816 43.907 39.155 44.076 39.536 C 44.162 39.725 44.284 39.939 44.502 40.124 C 44.61 40.215 44.743 40.292 44.879 40.338 C 45.053 40.394 45.059 40.385 45.103 40.391 C 45.177 40.392 45.255 40.397 45.323 40.428 C 45.394 40.456 45.442 40.528 45.445 40.605 C 45.451 40.681 45.429 40.757 45.405 40.828 C 45.392 40.863 45.377 40.898 45.361 40.931 L 45.335 40.982 L 45.3 41.049 C 45.228 41.182 45.146 41.315 45.057 41.45 L 44.921 41.654 L 44.847 41.762 C 44.822 41.8 44.776 41.868 44.748 41.924 C 44.684 42.05 44.617 42.127 44.515 42.203 C 44.415 42.278 44.282 42.341 44.117 42.397 C 43.951 42.455 43.759 42.504 43.541 42.573 C 43.325 42.647 43.078 42.732 42.818 42.931 C 42.566 43.124 42.385 43.411 42.305 43.711 L 42.266 43.848 C 42.254 43.887 42.243 43.924 42.227 43.963 C 42.2 44.038 42.166 44.114 42.129 44.187 C 41.982 44.481 41.768 44.756 41.513 45 C 41.003 45.496 40.353 45.855 39.679 46.141 C 39.349 46.276 39.032 46.37 38.761 46.373 C 38.5 46.381 38.244 46.305 37.946 46.175 C 38.044 46.215 38.374 46.341 38.643 46.338 C 38.965 46.351 39.354 46.195 39.354 46.195 C 39.241 46.238 38.993 46.321 38.721 46.318 C 38.584 46.315 38.439 46.293 38.261 46.231 C 38.171 46.204 38.076 46.164 37.974 46.12 C 37.921 46.096 37.867 46.071 37.814 46.047 C 37.731 46.011 37.647 45.976 37.556 45.947 C 37.196 45.827 36.768 45.819 36.413 45.905 C 36.053 45.988 35.759 46.129 35.501 46.261 C 34.994 46.532 34.6 46.762 34.319 46.844 C 34.43 46.822 34.61 46.768 34.793 46.686 C 34.978 46.605 35.174 46.503 35.314 46.424 C 35.308 46.462 35.165 46.588 34.902 46.756 C 34.772 46.838 34.611 46.929 34.422 46.995 C 34.345 47.024 34.194 47.058 34.058 47.093 C 33.915 47.129 33.762 47.169 33.599 47.211 C 33.599 47.211 33.466 47.221 33.334 47.231 C 33.199 47.246 33.067 47.259 33.067 47.259 C 33.067 47.259 32.936 47.32 32.808 47.381 C 32.679 47.445 32.549 47.517 32.549 47.517 C 32.293 47.618 32.103 47.715 31.962 47.813 C 31.818 47.907 31.723 48.007 31.678 48.062 C 31.58 48.185 31.653 48.025 31.737 47.919 C 31.818 47.814 31.897 47.739 31.803 47.795 C 31.78 47.811 31.744 47.838 31.692 47.886 C 31.64 47.939 31.566 48.005 31.485 48.172 C 31.403 48.329 31.357 48.653 31.521 48.926 C 31.537 48.954 31.555 48.983 31.576 49.014 C 31.583 49.027 31.593 49.04 31.6 49.054 C 31.616 49.081 31.631 49.111 31.643 49.138 C 31.681 49.168 31.726 49.227 31.736 49.32 C 31.746 49.414 31.728 49.52 31.605 49.687 C 31.488 49.847 31.286 50.02 31.037 50.177 C 30.972 50.216 30.909 50.254 30.842 50.292 C 30.779 50.326 30.709 50.36 30.629 50.399 C 30.468 50.47 30.307 50.545 30.139 50.621 C 29.467 50.92 28.727 51.232 27.988 51.512 C 27.805 51.58 27.621 51.649 27.438 51.716 L 27.185 51.804 L 27.03 51.856 C 26.925 51.887 26.821 51.919 26.717 51.942 C 26.666 51.952 26.614 51.962 26.559 51.962 C 26.534 51.962 26.506 51.962 26.484 51.947 C 26.465 51.93 26.452 51.908 26.44 51.886 C 26.397 51.775 26.412 51.658 26.419 51.547 C 26.435 51.437 26.447 51.33 26.459 51.229 C 26.464 51.191 26.468 51.153 26.472 51.114 C 26.474 51.067 26.48 51.019 26.483 50.973 C 26.487 50.878 26.487 50.783 26.481 50.689 C 26.468 50.499 26.416 50.29 26.331 50.141 C 26.239 49.977 26.165 49.857 26.1 49.751 C 25.968 49.279 26.124 49.588 26.386 50.116 C 26.646 50.633 26.457 51.318 26.453 51.422 C 26.411 51.645 26.426 51.83 26.476 51.851 C 26.49 51.862 26.5 51.852 26.503 51.825 C 26.507 51.799 26.507 51.744 26.524 51.667 C 26.509 51.55 26.518 51.459 26.526 51.326 C 26.534 51.217 26.544 51.095 26.554 50.95 C 26.557 50.845 26.561 50.726 26.546 50.585 C 26.53 50.442 26.494 50.267 26.411 50.103 C 26.378 50.034 26.321 49.92 26.259 49.795 C 26.338 49.885 26.413 49.962 26.498 50.062 C 26.518 50.111 26.551 50.158 26.574 50.207 C 26.554 50.147 26.528 50.09 26.512 50.056 C 25.859 48.737 25.43 47.53 24.732 46.509 C 24.057 45.52 23.358 44.771 22.752 44 C 22.449 43.619 22.163 43.233 21.913 42.828 C 21.786 42.626 21.67 42.416 21.566 42.199 C 21.515 42.091 21.465 41.981 21.42 41.867 C 21.369 41.745 21.32 41.62 21.269 41.495 C 20.839 40.473 20.214 39.465 19.459 38.352 L 19.564 38.547 C 19.001 37.763 18.575 37.166 18.264 36.656 C 17.953 36.147 17.746 35.732 17.6 35.342 C 17.487 35.184 17.575 35.403 17.653 35.587 C 17.732 35.768 17.788 35.915 17.592 35.608 C 17.261 34.849 16.969 34.097 16.794 33.342 C 16.754 33.164 16.708 32.938 16.654 32.739 C 16.6 32.536 16.54 32.338 16.478 32.143 C 16.353 31.754 16.212 31.381 16.067 31.022 C 15.474 29.583 14.779 28.396 14.284 27.46 C 14.26 27.625 13.703 26.95 13.085 26.454 C 12 25.324 10.698 24.783 9.246 25.613 C 8.119 26.258 7.841 28.067 7.842 28.097 C 7.844 28.099 7.845 28.101 7.846 28.104 Z M 19.285 49.828 C 19.284 49.828 19.283 49.829 19.283 49.83 C 19.283 49.831 19.283 49.831 19.283 49.831 C 19.283 49.831 19.283 49.831 19.282 49.831 C 19.283 49.831 19.283 49.829 19.285 49.828 C 19.285 49.828 19.285 49.828 19.285 49.828 Z M 19.281 49.837 L 19.281 49.837 L 19.281 49.836 L 19.281 49.837 L 19.281 49.837 Z M 19.282 49.835 L 19.282 49.835 L 19.282 49.835 L 19.282 49.835 Z M 19.285 49.828 C 19.284 49.829 19.284 49.831 19.283 49.831 L 19.283 49.831 C 19.283 49.831 19.284 49.829 19.285 49.828 L 19.285 49.828 Z M 19.188 49.859 C 19.187 49.858 19.187 49.858 19.188 49.859 L 19.188 49.859 L 19.188 49.859 Z M 71.865 22.977 C 72.018 22.04 72.08 21.542 72.376 20.957 C 72.338 21.374 71.995 22.436 71.865 22.977 Z M 64.287 64.832 C 63.966 64.75 63.67 64.659 63.431 64.53 C 63.309 64.462 63.214 64.396 63.139 64.319 C 63.065 64.24 63.01 64.145 62.985 64.046 C 63.093 64.317 63.326 64.435 63.587 64.555 C 63.844 64.668 64.093 64.75 64.287 64.832 Z M 36.042 41.935 C 35.964 41.678 35.903 41.427 35.847 41.178 C 35.863 41.191 35.877 41.204 35.892 41.216 C 36.031 41.341 36.166 41.422 36.214 41.246 L 36.247 41.487 C 36.372 41.377 36.081 40.739 36.219 40.569 L 35.919 39.825 C 35.984 39.84 36.05 39.697 36.091 39.819 C 36.062 39.625 36.041 39.455 36.167 39.694 C 35.812 38.792 35.608 37.8 35.166 36.881 C 34.748 36.003 34.296 35.154 33.732 34.41 C 33.68 34.296 33.765 34.329 33.82 34.351 C 33.516 34.135 33.725 34.03 33.649 33.857 L 33.209 33.538 C 33.164 33.331 33.3 33.434 33.331 33.399 C 32.904 32.569 32.298 31.861 32.135 31.12 C 31.976 30.931 31.99 31.24 31.85 30.959 C 32.034 31.116 31.976 30.893 31.902 30.656 C 31.845 30.419 31.771 30.167 31.89 30.269 C 31.551 30.06 31.555 29.216 31.26 29.419 C 31.168 29.049 31.342 29.086 31.39 29.185 C 31.366 29.079 31.344 28.978 31.329 28.88 C 31.316 28.783 31.307 28.688 31.302 28.595 C 31.293 28.41 31.295 28.234 31.346 28.055 C 31.323 27.997 31.313 27.846 31.304 27.646 C 31.304 27.452 31.32 27.214 31.353 26.971 C 31.414 26.485 31.552 25.972 31.488 25.744 C 31.568 26.049 31.576 25.75 31.723 25.525 L 31.793 25.79 L 31.956 25.229 C 32.007 25.117 32.012 25.083 31.999 25.08 C 32.023 24.979 31.914 25.079 31.953 24.818 C 32.064 24.419 32.142 24.415 32.269 24.204 L 32.278 24.274 L 32.352 23.987 C 32.395 23.777 32.05 24.701 32.126 24.002 C 32.17 24.006 32.434 23.621 32.344 23.409 C 32.313 23.779 32.207 23.712 32.187 23.576 C 32.187 23.576 32.192 23.546 32.197 23.5 C 32.201 23.452 32.203 23.389 32.207 23.326 C 32.211 23.263 32.215 23.201 32.217 23.154 C 32.221 23.106 32.219 23.074 32.219 23.074 C 32.219 23.074 32.265 23.118 32.307 23.162 C 32.35 23.207 32.394 23.253 32.394 23.253 C 32.413 23.067 32.394 22.874 32.39 22.685 C 32.363 22.497 32.354 22.304 32.306 22.119 L 32.24 21.839 L 32.176 21.59 C 32.132 21.427 32.088 21.263 32.046 21.099 C 31.953 20.771 31.898 20.431 31.828 20.091 C 31.764 19.75 31.723 19.402 31.682 19.052 C 31.521 19.087 31.586 18.054 31.361 18.198 L 31.387 18.251 C 31.397 18.602 31.188 18.165 31.201 17.875 C 31.295 18.169 31.404 17.326 31.485 18.046 L 31.563 17.48 C 31.994 17.149 31.449 15.991 31.555 15.127 C 31.542 15.189 31.517 15.206 31.504 15.213 C 31.554 14.826 31.512 14.413 31.436 14.036 C 31.361 13.672 31.264 13.394 31.285 13.298 L 31.149 13.251 C 31.185 12.907 31.194 12.71 31.164 12.508 C 31.132 12.305 31.065 12.092 30.905 11.722 C 30.887 11.737 30.882 11.835 30.82 11.724 C 30.846 11.513 30.882 11.294 30.647 10.787 L 30.618 10.824 C 30.618 10.824 30.536 10.623 30.452 10.423 C 30.36 10.224 30.264 10.027 30.264 10.027 C 30.095 10.12 29.98 9.766 29.793 9.396 C 29.702 9.209 29.586 9.02 29.467 8.881 C 29.336 8.748 29.211 8.662 29.086 8.692 C 29.063 8.593 28.941 8.415 28.77 8.253 C 28.604 8.087 28.394 7.937 28.256 7.846 C 28.247 7.86 28.222 7.866 28.167 7.859 C 28.101 7.771 27.995 7.715 27.87 7.666 C 27.745 7.629 27.598 7.609 27.453 7.609 C 27.157 7.615 26.873 7.69 26.673 7.724 C 26.398 7.728 26.492 7.643 26.602 7.554 C 26.336 7.677 25.985 7.774 25.663 7.872 C 25.509 7.929 25.364 7.982 25.248 8.032 C 25.136 8.086 25.056 8.136 25.031 8.179 C 24.734 8.421 25.006 8.379 24.983 8.509 C 24.562 8.842 24.812 8.178 24.385 8.795 C 24.455 8.745 24.575 8.647 24.549 8.706 C 24.463 8.814 24.415 9.037 24.363 9.24 C 24.318 9.452 24.275 9.65 24.16 9.725 L 24.214 9.545 C 24.119 9.624 24.041 9.732 23.977 9.848 C 23.945 9.907 23.914 9.964 23.889 10.024 C 23.869 10.086 23.852 10.148 23.833 10.206 C 23.763 10.439 23.707 10.608 23.572 10.58 L 23.489 10.483 C 23.408 10.681 23.384 10.81 23.356 10.89 C 23.327 10.972 23.302 11.009 23.28 11.049 C 23.255 11.089 23.232 11.127 23.2 11.209 C 23.168 11.291 23.124 11.413 23.107 11.63 L 23.131 11.626 C 23.012 11.978 23.099 12.194 22.89 12.336 L 22.884 12.207 C 22.841 12.432 22.822 12.557 22.808 12.681 C 22.801 12.744 22.792 12.807 22.785 12.884 C 22.784 12.959 22.782 13.05 22.78 13.165 C 22.757 13.218 22.719 13.443 22.756 13.508 C 22.575 13.528 22.709 14.591 22.763 14.787 C 22.744 14.422 22.834 14.589 22.909 14.681 C 22.806 14.906 22.797 15.061 22.942 15.335 C 22.753 15.407 22.547 15.501 22.641 16.084 C 22.651 15.991 22.646 15.844 22.697 15.895 C 22.744 15.947 22.729 16.088 22.722 16.137 C 22.775 16.184 22.768 15.995 22.85 16.045 C 22.742 16.47 22.973 16.715 23.041 17.275 C 23.058 17.087 23.133 17.227 23.216 17.274 C 23.002 17.373 23.591 17.966 23.255 17.833 C 23.475 18.343 23.651 19.005 23.792 19.588 C 23.864 19.878 23.918 20.149 23.982 20.371 C 24.035 20.592 24.088 20.764 24.153 20.859 C 24.26 20.959 24.162 21.263 24.171 21.438 L 24.27 21.406 C 24.19 21.666 24.181 21.76 24.16 21.871 C 24.143 21.98 24.129 22.102 24.022 22.394 C 24.15 22.154 24.203 22.255 24.283 22.515 L 24.048 22.921 L 24.195 23.015 C 24.122 23.181 24.129 23.379 24.138 23.575 C 23.956 23.736 23.939 24.428 23.855 24.553 C 24.067 24.748 23.831 25.117 24.05 25.25 C 24.029 25.321 24.015 25.412 24.016 25.512 C 23.906 25.428 23.799 25.404 23.882 25.591 C 23.884 25.608 23.885 25.622 23.887 25.639 L 24.021 25.697 C 24.035 25.896 24.088 26.096 24.125 26.225 C 24.095 26.172 24.054 26.111 24.006 26.049 C 24.051 26.125 24.089 26.197 24.139 26.262 C 24.149 26.287 24.16 26.312 24.166 26.328 C 24.166 26.316 24.162 26.301 24.155 26.286 C 24.23 26.389 24.28 26.503 24.321 26.677 C 24.573 26.967 24.666 27.26 24.78 27.583 C 24.873 27.903 24.971 28.21 25.182 28.453 C 25.126 28.375 25.072 28.258 25.102 28.211 C 25.141 28.332 25.193 28.449 25.248 28.562 C 25.295 28.679 25.338 28.791 25.382 28.901 C 25.463 29.12 25.507 29.334 25.486 29.506 L 25.37 29.494 C 25.361 29.889 25.347 30.21 25.376 30.543 L 25.25 30.571 C 25.296 30.819 25.27 31.203 25.322 31.588 C 25.363 31.968 25.43 32.321 25.582 32.454 C 25.503 32.594 25.743 33.12 25.764 33.403 L 25.872 33.453 C 25.976 33.807 25.985 34.034 26.004 34.251 C 26.361 34.926 26.303 35.634 26.444 36.248 L 26.471 36.248 C 26.471 36.248 26.531 36.887 26.538 36.901 C 26.585 36.708 26.507 37.046 26.578 37.243 C 26.573 37.473 26.698 37.803 26.83 38.029 C 26.83 38.029 26.862 38.131 26.895 38.234 C 26.922 38.338 26.962 38.438 26.962 38.438 C 26.882 37.965 27.102 38.43 27.221 38.418 L 27.22 38.701 C 27.307 38.786 27.248 38.508 27.335 38.689 C 27.332 38.881 27.514 39.38 27.463 39.574 C 27.428 39.559 27.381 39.507 27.332 39.441 C 27.332 39.417 27.33 39.419 27.329 39.435 C 27.323 39.431 27.32 39.427 27.316 39.419 C 27.319 39.428 27.321 39.431 27.328 39.44 C 27.323 39.464 27.319 39.506 27.311 39.524 C 27.45 39.831 27.364 39.732 27.311 39.738 C 27.606 40.035 27.573 40.271 27.871 40.465 C 27.512 40.186 28.185 41.27 27.892 41.124 C 28.162 41.317 27.969 41.299 28.18 41.408 C 27.987 41.062 27.994 40.637 27.952 40.312 L 28.165 40.563 C 28.282 40.299 27.839 39.94 27.84 39.741 C 27.837 39.875 27.985 40.119 28.032 40.113 L 27.856 40.09 C 27.638 39.697 27.633 39.316 27.597 38.996 C 27.742 39.261 27.568 38.622 27.74 38.791 L 27.8 39.018 C 27.825 39.042 27.84 39.04 27.849 39.019 C 28.131 39.811 28.452 40.613 28.761 41.377 C 28.653 41.483 28.799 41.998 28.639 41.898 C 28.764 42.066 28.817 41.964 28.922 42.368 C 28.935 42.646 28.654 42.132 28.562 42.049 C 28.623 42.363 28.586 42.377 28.548 42.403 C 28.81 42.574 29.176 42.64 29.152 42.353 C 29.208 42.495 29.263 42.633 29.316 42.77 C 29.256 42.688 29.265 42.812 29.328 42.965 L 29.385 42.956 C 29.384 42.943 29.38 42.931 29.376 42.92 C 30.402 45.53 31.881 44.755 34.186 44.872 C 33.698 44.848 34.129 44.87 34.319 44.879 C 36.445 44.986 36.937 44.955 36.042 41.935 Z M 24.186 23.552 C 24.17 23.556 24.156 23.567 24.143 23.579 C 24.15 23.497 24.162 23.543 24.186 23.552 Z M 28.937 41.817 C 29.004 41.985 29.069 42.151 29.136 42.315 C 29.01 42.155 28.946 41.956 28.937 41.817 Z M 28.88 41.68 C 28.886 41.691 28.891 41.704 28.897 41.716 C 28.894 41.718 28.893 41.72 28.891 41.721 L 28.88 41.68 Z M 26.813 37.681 C 26.811 37.685 26.812 37.689 26.811 37.693 C 26.742 37.541 26.7 37.465 26.813 37.681 Z M 26.647 35.701 C 26.623 35.28 26.667 34.919 26.756 34.705 C 26.911 35.415 27.057 36.087 27.155 36.616 C 27.157 36.619 27.159 36.623 27.161 36.626 C 27.137 36.57 27.118 36.527 27.098 36.499 C 27.165 36.641 27.197 36.917 27.181 37.058 L 27.039 36.73 C 27.104 37.009 27.267 37.201 27.337 37.614 C 27.222 37.57 27.18 37.902 26.961 37.629 C 26.609 36.865 27.045 36.904 26.814 35.982 C 26.824 35.89 26.697 36.21 26.647 35.701 Z M 26.211 32.583 C 26.203 32.475 26.223 32.35 26.256 32.232 C 26.28 32.359 26.302 32.491 26.329 32.625 C 26.292 32.597 26.242 32.561 26.211 32.583 Z M 25.667 29.846 C 25.719 29.779 25.849 29.739 25.998 29.728 C 26.012 29.883 26.023 30.045 26.036 30.219 L 25.848 30.292 L 26.039 30.287 C 26.051 30.445 26.063 30.61 26.078 30.788 C 26.055 30.783 26.036 30.768 26.015 30.74 C 25.905 30.583 25.686 29.89 25.667 29.846 Z M 24.984 26.736 C 25.12 26.972 25.238 27.187 25.339 27.389 C 25.32 27.669 25.276 27.918 25.24 28.056 L 25.145 27.622 L 25.024 27.56 C 24.946 27.302 24.951 27.007 24.984 26.736 Z M 24.434 22.308 C 24.468 22.259 24.507 22.202 24.552 22.14 C 24.549 22.257 24.545 22.374 24.537 22.49 C 24.451 22.465 24.371 22.444 24.315 22.473 C 24.314 22.473 24.36 22.407 24.434 22.308 Z M 23.164 14.826 C 23.169 14.874 23.177 14.919 23.183 14.966 C 23.172 15.011 23.163 15.06 23.154 15.1 C 23.167 15.078 23.179 15.055 23.191 15.031 C 23.204 15.124 23.218 15.216 23.232 15.306 C 23.201 15.309 23.167 15.283 23.132 15.209 C 23.137 15.178 23.146 15.14 23.154 15.1 C 23.1 15.202 23.056 15.267 23.02 15.202 C 23.02 15.202 23.02 15.058 23.027 14.912 C 23.032 14.768 23.037 14.624 23.037 14.624 C 23.062 14.675 23.109 14.746 23.164 14.826 Z M 31.938 25.019 L 31.943 25.118 C 31.89 25.163 31.843 25.209 31.938 25.019 Z M 36.658 41.86 C 36.612 41.737 36.727 41.751 36.741 41.728 C 36.777 41.945 36.628 41.861 36.658 41.86 Z M 36.704 44.464 C 36.704 44.464 36.747 44.388 36.779 44.303 C 36.802 44.215 36.827 44.127 36.827 44.127 L 36.875 44.081 C 36.875 44.081 36.838 44.182 36.802 44.283 C 36.765 44.382 36.7 44.463 36.704 44.464 Z M 35.475 45.214 C 35.529 45.216 35.585 45.217 35.643 45.22 C 35.708 45.219 35.777 45.211 35.846 45.203 C 35.983 45.192 36.107 45.136 36.207 45.085 C 36.21 45.087 36.249 45.012 36.249 45.012 C 36.242 45.013 36.518 45.02 36.515 45.005 C 36.28 45.195 35.911 45.266 35.614 45.273 C 35.348 45.275 35.133 45.259 34.978 45.283 C 35.078 45.194 35.252 45.208 35.475 45.214 Z M 33.926 45.582 C 33.985 45.586 34.01 45.579 34.002 45.581 C 33.998 45.581 33.98 45.585 33.964 45.589 C 33.949 45.587 33.936 45.585 33.926 45.582 L 33.926 45.582 Z M 33.958 44.926 L 33.927 45.582 L 33.927 45.582 L 33.927 45.582 L 33.926 45.626 L 33.926 45.626 L 33.958 44.926 Z M 33.965 45.589 C 34.005 45.596 34.067 45.605 34.151 45.616 C 34.128 45.622 34.12 45.627 34.106 45.631 C 34.085 45.63 34.061 45.629 34.029 45.628 C 34.013 45.628 33.997 45.627 33.976 45.627 C 33.965 45.626 33.955 45.627 33.944 45.627 L 33.944 45.627 C 33.922 45.608 33.942 45.596 33.965 45.589 Z M 33.925 45.626 L 33.925 45.626 L 33.925 45.626 L 33.925 45.626 L 33.925 45.626 Z M 33.945 45.628 C 33.945 45.628 33.946 45.629 33.948 45.631 L 33.932 45.63 L 33.928 45.63 L 33.927 45.629 C 33.926 45.63 33.927 45.629 33.926 45.628 L 33.925 45.628 L 33.925 45.628 L 33.925 45.626 L 33.925 45.626 L 33.927 45.627 L 33.945 45.628 Z M 34.106 45.632 C 34.311 45.647 33.97 45.685 34.106 45.632 L 34.106 45.632 Z M 33.645 45.583 C 33.645 45.583 33.71 45.599 33.772 45.615 C 33.834 45.632 33.896 45.65 33.896 45.65 C 33.844 45.688 33.619 45.696 33.702 45.727 C 33.444 45.693 33.496 45.653 33.645 45.583 Z M 33.4 45.454 L 33.534 45.479 C 33.511 45.497 33.476 45.503 33.4 45.454 Z M 33.665 45.499 C 33.642 45.447 33.698 45.495 33.816 45.536 C 33.816 45.536 33.747 45.519 33.677 45.508 C 33.606 45.496 33.534 45.48 33.534 45.48 C 33.57 45.449 33.576 45.392 33.665 45.499 Z M 34.165 44.992 C 34.161 45.02 34.155 45.094 34.149 45.139 C 34.146 45.165 34.142 45.192 34.137 45.216 C 34.135 45.256 34.131 45.295 34.129 45.332 C 34.126 45.36 34.122 45.387 34.12 45.414 C 34.116 45.443 34.114 45.47 34.111 45.498 C 34.096 45.5 34.082 45.502 34.067 45.504 C 34.066 45.504 34.063 45.504 34.063 45.504 C 34.014 45.497 33.977 45.49 33.949 45.482 C 33.913 45.476 33.945 45.462 33.942 45.458 C 33.949 45.452 33.922 45.438 33.937 45.437 C 33.961 45.43 33.995 45.423 34.041 45.419 C 34.051 45.418 34.064 45.415 34.076 45.412 L 34.096 45.408 L 34.105 45.405 L 34.111 45.354 C 34.113 45.342 34.114 45.326 34.116 45.311 C 34.112 45.335 34.109 45.358 34.105 45.382 C 34.11 45.356 34.112 45.335 34.116 45.31 C 34.12 45.26 34.129 45.208 34.134 45.152 C 34.142 45.105 34.149 45.059 34.156 45.01 C 34.163 44.977 34.17 44.943 34.179 44.906 L 34.184 44.881 C 34.184 44.88 34.184 44.881 34.184 44.881 C 34.174 44.939 34.169 44.955 34.174 44.937 C 34.176 44.923 34.18 44.905 34.183 44.885 L 34.183 44.885 L 34.184 44.881 C 34.184 44.88 34.183 44.885 34.182 44.892 L 34.182 44.893 C 34.178 44.926 34.172 44.96 34.165 44.992 Z M 34.114 45.5 L 34.12 45.446 C 34.119 45.437 34.122 45.426 34.124 45.415 C 34.141 45.273 34.153 45.133 34.167 45.023 C 34.175 44.975 34.179 44.93 34.183 44.893 C 34.184 44.887 34.184 44.882 34.185 44.878 C 34.179 44.942 34.17 45.006 34.164 45.073 C 34.148 45.214 34.132 45.362 34.115 45.52 C 34.081 45.519 34.036 45.516 33.991 45.514 C 34.016 45.511 34.044 45.509 34.069 45.505 C 34.081 45.504 34.093 45.503 34.103 45.502 L 34.114 45.5 Z M 34.184 44.88 C 34.184 44.879 34.184 44.88 34.184 44.88 C 34.184 44.879 34.184 44.879 34.184 44.878 C 34.184 44.878 34.184 44.878 34.184 44.88 Z M 34.881 45.094 L 35.089 45.046 L 35.268 45.105 C 35.177 45.079 34.866 45.152 34.881 45.094 Z M 31.94 45.708 C 31.923 45.67 32.044 45.608 32.064 45.559 L 32.28 45.603 C 32.173 45.629 31.959 45.65 31.94 45.708 Z M 31.738 45.482 C 32.038 45.492 32.081 45.512 32.065 45.559 C 32.065 45.559 31.985 45.542 31.904 45.525 C 31.821 45.502 31.738 45.482 31.738 45.482 Z M 33.349 45.255 C 33.349 45.255 33.469 45.288 33.587 45.322 C 33.708 45.355 33.826 45.394 33.826 45.393 C 33.826 45.394 33.685 45.355 33.544 45.322 C 33.401 45.287 33.256 45.255 33.256 45.255 L 33.349 45.255 Z M 30.381 45.343 L 30.532 45.454 C 30.532 45.454 30.579 45.496 30.627 45.539 C 30.676 45.582 30.724 45.623 30.724 45.623 C 30.724 45.623 30.633 45.553 30.548 45.483 C 30.464 45.413 30.381 45.343 30.381 45.343 Z M 29.269 44.625 C 29.216 44.515 29.184 44.411 29.15 44.313 C 29.199 44.409 29.25 44.504 29.335 44.597 C 29.424 44.689 29.529 44.78 29.654 44.872 C 29.696 44.954 29.626 44.942 29.568 44.917 C 29.511 44.896 29.452 44.871 29.499 44.954 C 29.405 44.843 29.332 44.731 29.269 44.625 Z M 29.149 44.312 C 29.098 44.211 29.056 44.105 29.048 43.993 C 29.077 44.089 29.108 44.195 29.149 44.312 Z M 30.83 45.464 L 31.003 45.396 C 31.047 45.408 31.097 45.419 31.147 45.431 C 31.115 45.447 31.047 45.495 30.83 45.464 Z M 30.695 45.309 C 30.715 45.316 30.749 45.329 30.799 45.347 C 30.85 45.359 30.919 45.375 31.011 45.395 L 31.004 45.397 C 30.927 45.378 30.861 45.363 30.809 45.349 C 30.755 45.331 30.717 45.316 30.695 45.309 Z M 31.182 45.437 C 31.168 45.437 31.159 45.435 31.147 45.432 C 31.164 45.426 31.17 45.423 31.182 45.437 Z M 32.573 45.376 C 32.388 45.321 32.015 45.263 32.376 45.163 C 32.506 45.235 32.298 45.292 32.573 45.376 Z M 31.373 45.329 C 31.373 45.329 31.463 45.336 31.553 45.342 C 31.64 45.342 31.729 45.34 31.729 45.34 C 31.719 45.369 31.653 45.406 31.749 45.442 C 31.749 45.442 31.655 45.418 31.563 45.392 C 31.467 45.364 31.373 45.329 31.373 45.329 Z M 31.203 45.27 L 31.373 45.329 L 31.237 45.32 L 31.203 45.27 Z M 29.532 44.384 C 29.57 44.427 29.606 44.467 29.645 44.509 C 29.639 44.553 29.663 44.667 29.5 44.482 C 29.43 44.32 29.335 44.172 29.234 44 C 29.301 44.084 29.368 44.17 29.435 44.256 L 29.532 44.384 Z M 30.16 45.044 C 30.15 45.036 30.136 45.027 30.13 45.019 C 30.154 45.023 30.172 45.031 30.16 45.044 Z M 28.52 42.387 L 28.547 42.405 L 28.532 42.417 L 28.52 42.387 Z M 29.684 44.523 C 29.808 44.633 29.861 44.722 29.919 44.809 C 29.819 44.72 29.739 44.614 29.645 44.509 C 29.647 44.488 29.652 44.48 29.684 44.523 Z M 28.85 43.49 C 28.902 43.557 28.958 43.63 29.018 43.707 C 28.946 43.653 28.835 43.53 28.85 43.49 Z M 30.062 45.008 C 30.068 45.014 30.074 45.021 30.082 45.028 C 30.02 45.012 30.033 45.006 30.062 45.008 Z M 30.062 45.008 C 29.998 44.937 29.96 44.871 29.919 44.809 C 29.995 44.883 30.066 44.956 30.13 45.019 C 30.104 45.014 30.081 45.01 30.062 45.008 Z M 28.772 42.951 L 28.808 43.076 C 28.737 42.945 28.663 42.864 28.52 42.713 C 28.488 42.498 28.505 42.444 28.532 42.417 L 28.773 42.999 L 28.772 42.951 Z M 29.211 43.326 C 29.37 43.692 29.256 43.619 29.329 43.862 C 29.03 43.254 29.368 44.065 29.08 43.66 C 29.128 43.787 29.181 43.898 29.233 44.002 C 29.162 43.898 29.088 43.8 29.018 43.709 C 29.022 43.712 29.028 43.715 29.032 43.719 L 29.034 43.722 L 29.034 43.721 C 29.061 43.742 29.071 43.745 29.05 43.721 C 29.05 43.717 29.047 43.711 29.046 43.706 C 29.055 43.696 29.062 43.679 29.067 43.661 C 28.951 43.494 29.027 43.645 29.046 43.706 C 29.041 43.711 29.037 43.717 29.034 43.721 L 29.032 43.72 C 29.011 43.72 28.81 43.078 28.81 43.078 C 28.882 43.203 28.937 43.367 29.067 43.661 C 29.102 43.509 29.029 43.187 29.211 43.326 Z M 32.042 44.932 C 32.021 44.942 32.025 44.95 32.021 44.958 C 31.983 44.943 31.968 44.933 32.042 44.932 Z M 32.052 45.088 L 32.009 45.072 C 31.809 45.103 31.543 45.17 31.467 45.205 C 31.549 45.13 31.626 45.069 31.784 44.989 C 31.829 45.006 31.866 45.056 32.014 45.045 C 32.142 45.013 32.015 44.993 32.021 44.958 C 32.11 44.986 32.333 45.037 32.052 45.088 Z M 31.467 45.205 C 31.461 45.211 31.453 45.217 31.447 45.223 C 31.44 45.22 31.45 45.214 31.467 45.205 Z M 30.26 44.737 C 30.26 44.737 30.154 44.633 30.049 44.53 C 29.996 44.481 29.961 44.417 29.926 44.378 C 29.895 44.334 29.871 44.306 29.871 44.306 C 29.871 44.306 29.937 44.344 30.003 44.38 C 30.035 44.397 30.067 44.415 30.091 44.428 C 30.117 44.437 30.135 44.445 30.135 44.445 L 30.086 44.478 C 30.348 44.665 30.252 44.675 30.26 44.737 Z M 28.408 42.126 L 28.448 42.353 L 28.366 42.457 L 28.408 42.126 Z M 28.131 41.795 L 28.12 41.608 L 28.214 41.733 L 28.131 41.795 Z M 23.766 25.587 L 23.888 25.642 C 23.9 25.819 23.953 25.947 24.006 26.051 C 23.839 25.838 23.652 25.576 23.766 25.587 Z M 26.238 35.141 C 26.157 34.965 26.107 34.821 26.073 34.693 C 26.184 34.903 26.315 35.063 26.238 35.141 Z M 28.145 7.722 C 28.244 7.782 28.271 7.829 28.262 7.848 C 28.168 7.779 28.111 7.74 28.145 7.722 Z M 25.962 34.161 C 25.98 34.191 25.99 34.221 26.007 34.253 C 26.019 34.392 26.032 34.532 26.074 34.694 C 25.995 34.54 25.924 34.357 25.962 34.161 Z M 36.092 39.821 C 36.108 39.865 36.118 39.945 36.127 40.075 C 36.124 40.015 36.105 39.915 36.092 39.821 Z M 27.198 39.236 C 27.239 39.374 27.195 39.263 27.198 39.236 L 27.198 39.236 Z M 27.87 39.666 C 27.85 39.686 27.842 39.712 27.842 39.738 C 27.844 39.706 27.85 39.68 27.87 39.666 Z M 27.318 39.422 C 27.287 39.375 27.255 39.322 27.222 39.262 C 27.244 39.286 27.271 39.335 27.318 39.422 Z M 27.259 39.413 C 27.281 39.458 27.296 39.492 27.313 39.527 C 27.3 39.549 27.286 39.539 27.259 39.413 Z M 27.198 39.236 C 27.184 39.196 27.168 39.14 27.136 39.046 C 27.162 39.125 27.19 39.197 27.222 39.262 C 27.206 39.238 27.198 39.228 27.198 39.236 Z M 27.583 40.341 C 27.632 40.482 27.677 40.522 27.72 40.585 C 27.694 40.589 27.633 40.549 27.666 40.64 L 27.583 40.341 Z M 28.148 40.757 C 28.252 40.741 28.289 40.932 28.352 41.138 C 28.348 41.125 28.344 41.114 28.338 41.101 C 28.229 41.215 28.187 40.984 28.148 40.757 Z M 28.367 41.184 C 28.387 41.248 28.41 41.312 28.438 41.371 C 28.395 41.415 28.397 41.299 28.367 41.184 Z M 27.123 38.761 C 27.181 38.851 27.019 38.864 27.079 38.907 C 26.992 39.058 27.009 38.2 27.123 38.761 Z M 28.525 40.793 L 28.38 40.768 L 28.428 40.619 L 28.525 40.793 Z M 27.833 39.25 L 27.984 39.559 C 27.962 39.563 27.965 39.607 27.975 39.661 C 27.899 39.464 27.796 39.255 27.833 39.25 Z M 27.975 39.659 C 28.014 39.763 28.049 39.861 28.053 39.924 C 28.033 39.869 27.99 39.749 27.975 39.659 Z M 26.901 35.523 C 26.888 35.616 26.901 35.753 26.849 35.707 L 26.807 35.335 C 26.845 35.29 26.89 35.383 26.901 35.523 Z M 36.45 41.044 C 36.45 41.044 36.477 41.11 36.507 41.17 C 36.535 41.231 36.566 41.293 36.566 41.293 L 36.44 41.147 L 36.45 41.044 Z M 36.465 41.81 C 36.457 41.748 36.441 41.629 36.393 41.594 L 36.566 41.613 L 36.465 41.81 Z M 72.193 7.54 C 72.165 7.524 72.137 7.509 72.107 7.493 C 72.107 7.494 72.142 7.51 72.193 7.54 Z M 72.193 7.54 C 72.546 7.732 72.755 7.903 72.907 8.036 C 72.907 8.036 72.725 7.876 72.522 7.742 C 72.401 7.659 72.274 7.584 72.193 7.54 Z M 73.938 14.254 L 73.868 14.394 C 73.938 14.118 73.975 14.006 73.938 14.254 Z M 64.554 60.38 C 64.665 59.984 64.752 59.586 64.752 59.586 C 64.681 59.946 64.558 60.462 64.32 61.164 C 64.32 61.163 64.448 60.774 64.554 60.38 Z M 60.088 36.253 C 60.237 35.474 60.322 35.259 60.349 35.226 C 60.378 35.193 60.371 35.338 60.414 35.284 C 60.414 35.284 60.323 35.524 60.243 35.766 C 60.166 36.012 60.088 36.253 60.088 36.253 Z M 34.318 46.841 C 34.236 46.863 34.139 46.889 34.064 46.911 C 34.031 46.902 34.163 46.874 34.318 46.841 Z M 68.254 86.889 C 68.268 86.87 68.279 86.856 68.295 86.835 C 68.171 87.034 68.194 87 68.254 86.889 Z M 51.148 2.953 C 51.184 3.012 51.308 3.232 51.429 3.531 C 51.404 3.482 51.375 3.427 51.344 3.377 C 51.172 2.996 51.109 2.896 51.148 2.953 Z M 80.805 53.935 C 80.819 53.902 80.826 53.883 80.839 53.852 C 80.828 53.886 80.814 53.932 80.803 53.965 L 80.805 53.935 Z M 80.817 54.951 L 79.907 56.608 C 80.37 55.51 80.535 54.844 80.803 53.964 C 80.803 53.964 80.805 54.212 80.806 54.46 C 80.81 54.707 80.817 54.951 80.817 54.951 Z M 74.14 10.522 C 74.138 10.502 74.135 10.482 74.134 10.461 C 74.134 10.461 74.135 10.483 74.14 10.522 Z M 74.992 66.444 C 74.831 66.552 74.744 66.666 74.655 66.753 C 74.72 66.67 74.791 66.585 74.881 66.509 C 74.967 66.436 75.081 66.36 75.22 66.35 C 75.362 66.344 75.467 66.412 75.576 66.481 C 75.592 66.493 75.611 66.505 75.627 66.517 C 75.506 66.443 75.42 66.378 75.305 66.362 C 75.182 66.345 75.07 66.393 74.992 66.444 Z M 52.078 21.237 C 52.061 21.353 52.044 21.457 52.03 21.542 C 52.047 21.438 52.061 21.338 52.078 21.237 Z M 55.891 43.553 C 55.703 43.484 55.585 43.432 55.585 43.432 C 55.699 43.479 55.799 43.517 55.891 43.553 Z M 74.14 10.522 C 74.151 10.646 74.156 10.757 74.159 10.844 C 74.151 10.697 74.145 10.585 74.14 10.522 Z M 75.649 66.531 C 75.647 66.53 75.645 66.529 75.643 66.527 C 75.638 66.525 75.633 66.519 75.627 66.518 C 75.637 66.523 75.642 66.527 75.649 66.531 Z M 64.229 61.255 C 64.268 61.095 64.262 61.042 64.253 60.999 C 64.348 60.792 64.376 60.796 64.229 61.255 Z M 60.48 35.107 L 60.455 35.199 C 60.437 35.247 60.424 35.271 60.414 35.285 L 60.48 35.107 Z M 74.054 77.565 C 73.94 77.664 73.739 77.82 73.476 78.081 C 73.814 77.731 74.045 77.551 74.185 77.42 C 74.205 77.424 74.17 77.465 74.054 77.565 Z M 32.768 95.338 C 32.768 95.338 33.052 95.516 33.365 95.636 C 33.675 95.762 34.006 95.816 34.006 95.816 C 34.006 95.816 33.887 95.8 33.715 95.756 C 33.543 95.712 33.317 95.635 33.103 95.534 C 32.669 95.333 32.292 95.04 32.292 95.04 C 32.292 95.04 32.407 95.121 32.527 95.196 C 32.646 95.271 32.768 95.338 32.768 95.338 Z M 51.908 99.511 C 51.908 99.511 51.674 99.408 51.451 99.286 C 51.226 99.164 51.018 99.022 51.018 99.022 C 51.537 99.281 51.592 99.257 51.903 99.34 L 51.908 99.511 Z M 57.028 99.798 C 57.261 99.862 59.985 98.803 57.439 99.801 C 57.221 99.873 55.107 100.212 57.028 99.798 Z M 89.891 54.572 C 90.713 53.357 91.072 52.633 90.872 53.319 C 90.266 54.402 90.156 54.491 90.066 54.574 C 90.02 54.612 89.977 54.645 89.882 54.788 C 89.791 54.928 89.629 55.185 89.416 55.645 C 89.279 55.865 89.43 55.494 89.639 55.107 C 89.842 54.724 90.064 54.335 89.891 54.572 Z M 89.891 54.572 C 89.765 54.766 89.629 54.971 89.487 55.189 C 89.704 54.838 89.82 54.673 89.891 54.572 Z M 71.897 25.952 L 72.039 27.182 L 72.002 27.307 C 71.954 27.057 71.934 26.675 71.897 25.952 Z M 70.435 7.084 C 70.435 7.084 70.533 7.05 70.633 7.021 C 70.733 6.992 70.835 6.97 70.835 6.97 C 70.835 6.97 70.949 6.982 71.061 7.003 C 71.171 7.022 71.279 7.048 71.279 7.048 C 71.279 7.048 71.067 7.033 70.855 7.045 C 70.645 7.05 70.435 7.084 70.435 7.084 Z M 64.177 21.021 C 64.191 20.923 64.203 20.823 64.219 20.721 C 64.206 20.818 64.189 20.92 64.177 21.021 Z M 63.799 22.915 C 63.833 22.737 63.884 22.523 63.923 22.356 C 63.966 22.179 64.004 21.998 64.042 21.813 C 64.094 21.547 64.138 21.28 64.176 21.02 C 64.091 21.635 64.03 22.116 63.973 22.441 C 63.903 22.844 63.866 23.038 63.799 22.915 Z" style=""></path>
</svg>