<svg version="1.1" x="0px" y="0px" viewBox="0 0 100 125" enable-background="new 0 0 100 100" xmlns="http://www.w3.org/2000/svg">
  <defs></defs>
  <path d="M12.907,30.733c0,0,0,0.001,0,0.001c0,0.001,0.001,0.002,0.001,0.003v0.001c0,0,0,0.002,0.001,0.003  c-0.001-0.001,0-0.002,0-0.002c0.001,0.003,0.002,0.006,0.002,0.01c0.002,0.003,0.002,0.007,0.004,0.011c0,0,0,0,0,0v0l0,0l0,0  c-0.003-0.003,0,0.009,0.001,0.004c-0.001-0.001-0.001-0.002-0.001-0.003c0,0.001,0,0.001,0,0.001l0,0l0,0l0,0  c0.706,2.398,1.458,4.782,3.375,7.125c0.957,1.17,1.182,2.764,1.691,4.142c0.688,1.847,2.024,3.436,3.098,5.066  c1.29,1.959,1.878,5.119,3.876,6.454c0.71,0.473,0.139,1.006-0.02,1.794c-0.462,2.314,0.142,4.604,0.856,6.792  c0.833,2.554,1.638,5,2.754,7.455c0.401,0.88,0.665,1.555,1.483,2.121c1.546,1.068,0.388,3.897,0.351,5.349  c-0.003,0.133-0.006,0.27-0.01,0.408c-0.004,0.147-0.007,0.297-0.018,0.438c0.001,0.122,0.003,0.218,0.007,0.289  c-0.01,0.675-0.007,1.398,0.023,2.141c0,0.039-0.001,0.079-0.001,0.121c0.004,0.042,0.009,0.084,0.014,0.126  c0.043,0.861,0.126,1.745,0.276,2.605c0.039,0.348,0.062,0.585,0.04,0.631c0.121,0.448,0.04-0.081,0.057-0.13  c0.014,0.062,0.026,0.125,0.04,0.187c0.031,0.168,0.083,0.423,0.147,0.68c0.104,0.433,0.244,0.855,0.244,0.855  c0.036,0.042,0.051,0.034,0.052-0.01c0.303,0.819,0.702,1.569,1.232,2.201c2.474,2.942,3.41,3.235,6.454,2.262  c0.617-0.196,1.296-0.475,2.1-0.697c0.19-0.021,0.846-0.161,1.288-0.185c0.876-0.153,1.979-0.184,3.097,0.02  c0.554,0.128,1.078,0.406,1.562,0.728c0.485,0.323,0.935,0.695,1.358,1.068c0.847,0.747,1.606,1.491,2.32,1.976  c0.364,0.248,0.714,0.411,1.009,0.52c0.416,0.163,0.899,0.293,1.511,0.397c3.032,0.519,5.289-0.827,7.12-2.824  c0.381-0.32,0.605-0.503,0.656-0.457c-0.443,0.496-1.154,1.205-1.854,1.745c-0.692,0.549-1.37,0.916-1.525,1.066  c0.617-0.271,1.39-0.779,1.973-1.272c0.588-0.489,1.01-0.928,1.084-0.941c0.398-0.575-0.018-0.098-0.426,0.311  c-0.204,0.206-0.406,0.393-0.479,0.445c-0.075,0.052-0.011-0.022,0.287-0.363c0.656-0.666,0.939-0.952,1.235-1.272  c-0.222,0.222-0.108,0.042,0.07-0.226c0.18-0.268,0.417-0.63,0.483-0.753c0.869-1.226,1.457-2.252,2.065-3.293  c0.304-0.521,0.606-1.051,0.951-1.612c0.347-0.56,0.759-1.139,1.237-1.782c0.014-0.026,0.031-0.057,0.049-0.088  c0.404-0.54,0.813-1.077,1.197-1.624c0.168-0.201,0.329-0.395,0.469-0.567c0.438-0.531,0.707-0.867,0.603-0.582  c0.469-0.815,0.636-1.292,0.782-1.73c0.072-0.221,0.135-0.436,0.2-0.692c0.071-0.263,0.122-0.557,0.235-0.915  c-0.066,0.297-0.094,0.511-0.121,0.672c-0.029,0.161-0.045,0.251-0.051,0.285c-0.012,0.069,0.029-0.08,0.078-0.318  c0.048-0.23,0.113-0.53,0.2-0.781c0.086-0.251,0.188-0.445,0.247-0.484c0.152-0.329,0.275-0.493,0.342-0.597  c0.07-0.104,0.087-0.14,0.086-0.158c0.002-0.036-0.076-0.008,0.146-0.268c0.179-0.172,0.695-0.499,0.757-0.484  c0.359-0.311-0.069-0.129-0.464,0.088c-0.197,0.106-0.381,0.228-0.471,0.267c-0.046,0.021-0.07,0.019-0.06-0.019  c0.27-0.278,0.603-0.539,1.026-0.818c0.346-0.228,0.623-0.475,0.857-0.734l0.033,0.052c0,0,0.078-0.087,0.152-0.178  c0.074-0.09,0.143-0.185,0.143-0.185s-0.049,0.022-0.113,0.049c0.484-0.638,0.748-1.36,1.038-2.152  c0.031,0.013,0.06,0.032,0.083,0.063c0.119,0.156,0.179,0.532,0.025,1.122c0.067-0.042,0.198-0.422,0.318-0.859  c0.121-0.435,0.259-0.946,0.383-1.233c0.155-0.412,0.418-0.744,0.688-1.036c0.271-0.292,0.554-0.55,0.821-0.832  c0.265-0.282,0.522-0.6,0.712-0.983c0.179-0.346,0.32-0.761,0.432-1.139c0,0-0.123,0.301-0.248,0.603  c-0.067,0.156-0.143,0.311-0.201,0.425c-0.063,0.116-0.104,0.193-0.104,0.193c0.03-0.08,0.118-0.273,0.226-0.55  c0.107-0.273,0.209-0.631,0.332-0.908c0.234-0.538,0.789-0.981,0.937-1.1c0.006-0.039-0.265,0.129-0.461,0.247  c-0.194,0.118-0.341,0.186-0.113-0.116c0.505-0.548,1.102-1.006,1.624-1.478c0.263-0.234,0.511-0.475,0.726-0.716  c0.208-0.225,0.419-0.428,0.612-0.615c0.785-0.742,1.297-1.226,1.295-1.103c0,0-0.195,0.229-0.495,0.558  c-0.298,0.33-0.718,0.754-1.099,1.165c-0.098,0.11-0.194,0.22-0.291,0.328c-0.104,0.112-0.209,0.219-0.313,0.318  c-0.207,0.2-0.402,0.372-0.572,0.518c-0.336,0.281-0.561,0.47-0.561,0.47c-0.008,0.05,0.143-0.055,0.38-0.24  c0.237-0.188,0.565-0.458,0.88-0.765c0.154-0.147,0.316-0.325,0.439-0.463c0.122-0.133,0.244-0.255,0.348-0.355  c0.211-0.203,0.354-0.321,0.35-0.261c0,0,0.179-0.204,0.445-0.514c0.268-0.313,0.616-0.742,0.944-1.189  c0.663-0.891,1.209-1.854,1.209-1.854c-0.143,0.24-0.45,0.716-0.697,1.046c-0.247,0.332-0.421,0.524-0.255,0.231  c0.541-0.775,0.649-0.997,0.729-1.143c0.072-0.15,0.104-0.233,0.385-0.796c-0.58,0.909-1.533,2.116-2.563,3.088  c-0.151,0.147-0.303,0.289-0.456,0.427c0.62-0.7,1.382-1.612,2.189-2.94c0.05-0.061,0.1-0.124,0.147-0.184  c0.693-0.878,1.195-1.586,1.417-1.907c0.171-0.385,0.261-0.649,0.302-0.822c0.04-0.175,0.029-0.236-0.001-0.264  c-0.064-0.048-0.231,0.141-0.335,0.314c0.154-0.381,0.316-0.688,0.485-0.958c0.166-0.27,0.322-0.5,0.468-0.707  c0.291-0.415,0.541-0.737,0.781-1.069c0.24-0.333,0.48-0.671,0.727-1.14c0.122-0.235,0.247-0.503,0.355-0.83  c0.102-0.326,0.204-0.716,0.176-1.208c0,0,0.01,0.092,0.013,0.228c0.001,0.135-0.009,0.313-0.033,0.484  c-0.047,0.344-0.146,0.662-0.146,0.662c0.071-0.196,0.182-0.532,0.222-0.961c0.02-0.213,0.019-0.453-0.028-0.7  c-0.047-0.247-0.148-0.499-0.293-0.708c-0.294-0.426-0.695-0.633-0.938-0.744c-0.251-0.109-0.38-0.146-0.294-0.133  c-0.365-0.082-0.708-0.075-0.873-0.035c-0.131,0.039-0.125,0.071,0.078,0.126c-0.079-0.016-0.18-0.034-0.301-0.048  c-0.291-0.036-0.685-0.032-1.068,0.025c-0.385,0.056-0.76,0.158-1.034,0.25c-0.274,0.092-0.452,0.166-0.452,0.166  c0.418-0.172,0.24,0.148,0.429,0.104c-0.544,0.246-1.004,0.464-1.265,0.554c-0.258,0.093-0.322,0.044-0.007-0.182  c-0.48,0.356-0.782,0.629-1.009,0.837c-0.225,0.209-0.371,0.357-0.506,0.498c-0.132,0.142-0.252,0.276-0.408,0.473  c-0.153,0.198-0.35,0.456-0.59,0.872c-0.199,0.283-0.236,0.244-0.193,0.07s0.19-0.476,0.35-0.683  c-0.544,0.606-0.855,1.19-1.078,1.664c-0.22,0.481-0.354,0.878-0.467,1.232c0.237-0.603,0.429-0.927,0.555-1.084  c0.13-0.157,0.196-0.148,0.236-0.083c0.031,0.052,0.047,0.14,0.065,0.215c-0.232,0.511-0.428,1.048-0.603,1.588  c-0.137,0.301-0.277,0.626-0.415,0.953c-0.263,0.633-0.534,1.248-0.729,1.738c-0.096,0.244-0.169,0.47-0.2,0.655  c-0.033,0.186-0.024,0.313-0.024,0.313c0-0.138,0.071-0.336,0.153-0.463c0.08-0.132,0.159-0.217,0.166-0.199  c-0.025,0.038-0.063,0.129-0.098,0.275c-0.031,0.141-0.064,0.368,0.014,0.632c0.078,0.261,0.229,0.487,0.378,0.723  c0.078,0.119,0.158,0.243,0.243,0.372c-0.09-0.007-0.188-0.019-0.307-0.044c-0.152-0.029-0.331-0.069-0.546-0.067  c-0.226,0-0.466,0.066-0.661,0.201c-0.427,0.293-0.789,0.642-1.123,1.024c-0.33,0.384-0.623,0.799-0.848,1.256  c-0.111,0.226-0.205,0.475-0.26,0.72c-0.057,0.241-0.086,0.472-0.107,0.692c-0.04,0.439-0.045,0.839-0.059,1.185l0.02-0.455  c0.033-0.225,0.047-0.017,0.047,0.377c-0.003,0.195-0.006,0.443-0.041,0.68c-0.008,0.08-0.035,0.17-0.055,0.217  c-0.023-0.014-0.066-0.045-0.1-0.071c-0.096-0.076-0.188-0.14-0.275-0.196c-0.107-0.055-0.184-0.113-0.299-0.127  c-0.117-0.015-0.234,0.047-0.313,0.116c-0.166,0.144-0.271,0.328-0.365,0.512c-0.045,0.094-0.087,0.188-0.127,0.281  c-0.033,0.086-0.068,0.169-0.101,0.251c-0.057,0.144-0.111,0.281-0.164,0.417c-0.105,0.271-0.204,0.532-0.298,0.809  c-0.046,0.136-0.092,0.274-0.141,0.423c-0.021,0.068-0.047,0.139-0.07,0.211c-0.014,0.038-0.021,0.058-0.029,0.076  c-0.008,0.02-0.019,0.037-0.031,0.055c-0.035,0.053-0.07,0.106-0.106,0.162c-0.038,0.061-0.075,0.122-0.116,0.187  c-0.076,0.128-0.152,0.264-0.229,0.41c0.095-0.149,0.182-0.286,0.261-0.412c0.042-0.062,0.083-0.121,0.12-0.178  c0.035-0.052,0.07-0.102,0.103-0.147c0.024-0.029,0.037-0.063,0.05-0.095c0.018-0.053,0.035-0.102,0.052-0.148  c0.032-0.104,0.062-0.195,0.087-0.276c0.052-0.167,0.094-0.293,0.129-0.38c0.069-0.177,0.109-0.207,0.129-0.161  c-0.047,0.165-0.102,0.354-0.162,0.56c-0.028,0.1-0.059,0.203-0.092,0.31c-0.016,0.051-0.033,0.106-0.049,0.145  c-0.015,0.036-0.031,0.073-0.056,0.104c-0.479,0.672-0.942,1.474-1.328,1.944c-0.054,0.068-0.079,0.097-0.108,0.129  c-0.028,0.031-0.055,0.058-0.08,0.081c-0.049,0.046-0.09,0.077-0.119,0.09c-0.059,0.028-0.064-0.015-0.035-0.112  c-0.035,0.045-0.07,0.095-0.112,0.133c-0.042,0.041-0.104,0.055-0.149,0.029c-0.088-0.052-0.129-0.142-0.167-0.208  c-0.072-0.136-0.12-0.232-0.166-0.188c0,0-0.055-0.212-0.137-0.528c-0.042-0.173-0.091-0.374-0.159-0.603  c-0.019-0.059-0.039-0.117-0.062-0.18c-0.01-0.027-0.024-0.067-0.042-0.108c-0.018-0.038-0.035-0.076-0.057-0.113  c-0.074-0.153-0.234-0.278-0.303-0.352c-0.355-0.343-0.727-0.65-0.997-0.879c-0.269-0.227-0.447-0.378-0.447-0.378  c0.101,0.096,0.188,0.193,0.142,0.184c-0.043-0.011-0.23-0.123-0.644-0.464c0.406,0.33,0.81,0.66,1.199,0.978  c0.197,0.163,0.39,0.331,0.573,0.503l0.136,0.129c0.05,0.051,0.101,0.1,0.149,0.148c0.115,0.111,0.182,0.285,0.227,0.406  c0.084,0.24,0.137,0.456,0.193,0.663c0.053,0.203,0.108,0.403,0.16,0.569c0.078,0.238,0.17,0.443,0.294,0.523  c-0.021,0.112-0.125,0.082-0.181,0.088c-0.027,0.006-0.045,0.029-0.031,0.112c0.008,0.042,0.025,0.099,0.061,0.173  c0.037,0.067,0.096,0.172,0.217,0.215c-0.128-0.021-0.213-0.13-0.278-0.229c-0.064-0.104-0.114-0.213-0.157-0.322  c-0.086-0.224-0.145-0.428-0.207-0.651c-0.055-0.222-0.111-0.438-0.166-0.647c-0.059-0.214-0.104-0.412-0.211-0.625  c-0.051-0.103-0.151-0.176-0.216-0.249c-0.073-0.07-0.146-0.14-0.218-0.209c-0.145-0.137-0.289-0.266-0.43-0.392  c-0.283-0.251-0.559-0.485-0.814-0.719c-0.127-0.116-0.25-0.232-0.367-0.349c-0.115-0.114-0.241-0.236-0.322-0.34  c-0.173-0.222-0.285-0.487-0.387-0.775c-0.104-0.287-0.193-0.6-0.348-0.923c-0.076-0.162-0.17-0.325-0.29-0.481  c-0.06-0.078-0.126-0.154-0.198-0.225c-0.07-0.071-0.172-0.152-0.258-0.208c0,0-0.064-0.037-0.174-0.089  c-0.109-0.051-0.26-0.107-0.434-0.162c-0.346-0.111-0.79-0.206-1.161-0.345c-0.183-0.066-0.349-0.161-0.413-0.224  c-0.083-0.074-0.125-0.179-0.13-0.269c-0.003-0.045,0.001-0.087,0.007-0.124c0.008-0.041,0.02-0.088,0.031-0.123  c0.023-0.072,0.041-0.116,0.041-0.116s0.029-0.022,0.057-0.045c0.029-0.027,0.062-0.055,0.062-0.055l0.126-0.64  c0.223-0.397,0.361-0.656,0.386-0.75c0.019-0.083-0.044,0.017-0.136,0.173c0.156-0.352,0.299-0.671,0.374-0.837  c-0.029-0.164-0.335,0.413-0.692,0.998c-0.104,0.31-0.218,0.624-0.338,0.938c-0.198,0.287-0.269,0.554-0.29,0.652  c-0.005,0.019-0.011,0.027-0.019,0.029c-0.02-0.188,0.023-0.412,0.156-0.686c0.098-0.203,0.189-0.396,0.275-0.586  c0.07-0.11,0.142-0.227,0.215-0.349c0.033-0.1,0.064-0.2,0.098-0.297c-0.058,0.114-0.113,0.224-0.17,0.332  c0.085-0.19,0.166-0.378,0.24-0.559c-0.023,0.073-0.046,0.148-0.07,0.227c0.393-0.771,0.729-1.642,0.908-2.135  c0.178-0.491,0.266-0.589,0.125,0.188c0,0,0.117-0.525,0.196-1.052c0.083-0.525,0.138-1.051,0.138-1.051  c0.067-0.311,0.123-0.542,0.191-0.754c0.065-0.209,0.132-0.386,0.193-0.544c0.127-0.314,0.237-0.554,0.355-0.81  c0.124-0.258,0.254-0.533,0.434-0.911c0.176-0.386,0.422-0.879,0.658-1.647c-0.006-0.179-0.279,0.617-0.164,0.061  c0.097-0.271,0.176-0.567,0.222-0.883c0.048-0.314,0.062-0.645,0.053-0.96c-0.015-0.638-0.123-1.271-0.245-1.823  c-0.121-0.553-0.232-1.033-0.268-1.409c-0.037-0.375-0.006-0.644,0.043-0.75c0.053-0.405,0.141-0.64,0.199-0.786  c0.061-0.146,0.102-0.203,0.134-0.241c0.071-0.076,0.095-0.088,0.339-0.548c-0.035,0.037-0.114,0.109,0.024-0.165  c0,0,0.044-0.069,0.112-0.172c0.07-0.109,0.164-0.256,0.252-0.406c0.178-0.298,0.34-0.607,0.34-0.607  c0.184-0.528-0.579,1.134-0.01-0.313c0.529-1.217,0.809-2.236,1-3.214c0.094-0.489,0.159-0.97,0.201-1.467  c0.01-0.124,0.018-0.25,0.027-0.376c0.006-0.12,0.012-0.239,0.02-0.361c0.016-0.227,0.047-0.46,0.094-0.705  c0.168-0.69,0.307-0.956,0.339-1.004c0.039-0.048,0.007,0.123-0.024,0.304c-0.032,0.182-0.061,0.372-0.045,0.375  c0.02,0.001,0.063-0.18,0.264-0.76c0.019-0.187,0.031-0.366,0.113-0.687c0.08-0.324,0.246-0.778,0.513-1.571  c0.169-0.411,0.253-0.592,0.351-0.855c0.092-0.268,0.206-0.636,0.264-1.412l-0.146,0.091c0.037-0.708,0.007-1.322-0.016-1.757  c-0.025-0.435-0.055-0.696-0.107-0.7c0.014-0.537,0.037-0.975,0.072-1.344c0.021-0.184,0.043-0.348,0.066-0.504  c0.025-0.162,0.049-0.312,0.07-0.45c0.117-0.483,0.184-0.629,0.201-0.573c0.02,0.058-0.003,0.318-0.035,0.65  c-0.012,0.164-0.033,0.361-0.043,0.53c-0.011,0.172-0.015,0.35-0.013,0.515c0.005,0.332,0.028,0.621,0.043,0.733  c-0.028-0.469-0.018-0.885,0.03-1.257c0.057-0.393,0.125-0.779,0.195-1.127c0.139-0.703,0.273-1.309,0.34-1.877  c0,0-0.122,0.419-0.244,0.84c-0.117,0.419-0.226,0.838-0.226,0.838c0.168-0.91,0.347-1.578,0.494-2.096  c0.148-0.518,0.271-0.885,0.37-1.194c0.193-0.618,0.316-0.999,0.35-1.902c-0.25,1.299-0.758,2.772-0.627,2.014  c0,0,0.141-0.449,0.269-0.903c0.132-0.454,0.247-0.916,0.247-0.916c0.013-0.225-0.26,1.052-0.113,0.194  c0.152-0.522,0.415-1.593,0.533-2.07l-0.013,0.023c0,0,0.144-0.843,0.22-1.709c0.037-0.433,0.057-0.873,0.053-1.208  c-0.001-0.084-0.003-0.161-0.006-0.23c0.003,0.147-0.004,0.238-0.012,0.263c-0.014,0.041-0.023-0.085-0.047-0.429  c0,0-0.003-0.147-0.026-0.375c-0.025-0.228-0.067-0.539-0.205-0.873c-0.074-0.177-0.164-0.319-0.251-0.447  c-0.092-0.128-0.184-0.238-0.268-0.329c-0.166-0.18-0.292-0.281-0.292-0.281c0.289,0.272,0.263,0.289,0.071,0.133  c-0.195-0.148-0.591-0.432-1.119-0.624c-0.76-0.279-1.369-0.267-1.822-0.189c-0.457,0.085-0.77,0.229-1.035,0.393  c-0.14,0.089-0.237,0.165-0.345,0.245c-0.106,0.086-0.216,0.179-0.333,0.294c-0.23,0.232-0.502,0.552-0.801,1.073  c0.19-0.292,0.238-0.328,0.453-0.608c0,0-0.182,0.249-0.34,0.513c-0.159,0.262-0.295,0.535-0.295,0.535  c-0.094,0.018-0.381,0.418-0.656,1.054c-0.281,0.633-0.527,1.495-0.684,2.354c-0.161,0.861-0.25,1.716-0.329,2.364  c-0.078,0.649-0.147,1.095-0.229,1.15c0.001,0.812,0.015,0.839,0.069,0.41c0.056-0.429,0.133-1.328,0.317-2.379  c0,0-0.026,0.441-0.041,0.878c-0.014,0.435-0.026,0.87-0.026,0.87c0.064-0.699,0.088-1.295,0.207-2.052  c-0.074,1.154-0.145,2.255-0.256,3.212c-0.108,0.958-0.264,1.766-0.401,2.339c-0.051,0.412,0.032,0.262,0.071,0.298  c0.02,0.019,0.029,0.084-0.004,0.29c-0.028,0.197-0.121,0.568-0.25,1.179c-0.661,3.457-0.115-0.693-0.502,1.383l-0.09,1.516  c-0.281,1.291-0.536,2.382-0.907,3.37c-0.185,0.493-0.396,0.959-0.647,1.407c-0.287,0.504-0.528,1.049-0.719,1.613  c-0.189,0.507-0.264,0.759-0.316,0.881c-0.281,1.229-0.443,2.508-0.602,3.68c-0.078,0.587-0.156,1.146-0.238,1.663  c-0.07,0.489-0.192,0.866-0.346,1.18c0.086-0.14,0.03,0.058-0.102,0.281c-0.125,0.228-0.357,0.439-0.418,0.498  c0,0-0.035,0.019-0.094,0.052c-0.06,0.031-0.146,0.073-0.257,0.112c-0.221,0.078-0.54,0.133-0.877,0.115  c-0.337-0.016-0.679-0.096-0.933-0.179c-0.055-0.017-0.104-0.034-0.15-0.05c0.412,0.155,0.638,0.201,0.773,0.253  c0.164,0.055,0.205,0.099,0.318,0.146c-0.445-0.012-0.776-0.108-1.062-0.208c-0.286-0.102-0.528-0.218-0.813-0.363  c0.336,0.2,0.699,0.365,0.22,0.217c0,0-0.183-0.085-0.441-0.239c-0.13-0.077-0.277-0.171-0.433-0.279  c-0.078-0.055-0.156-0.112-0.234-0.173c-0.075-0.058-0.15-0.116-0.221-0.18c-0.287-0.251-0.518-0.542-0.655-0.776  c-0.071-0.117-0.122-0.219-0.157-0.292c-0.031-0.072-0.051-0.115-0.051-0.115c0.087,0.149,0.26,0.433,0.445,0.641  c-0.236-0.273-0.523-0.769-0.662-1.388c-0.148-0.614-0.163-1.331-0.167-1.915c-0.042,0.102-0.085,0.5-0.116,0.6  c0.113,0.966,0.172,1.467,0.287,1.94c-0.193-0.493-0.229-0.803-0.263-0.968c-0.029-0.167-0.035-0.201-0.044-0.197  c-0.011,0.005-0.031,0.164-0.105-0.373c-0.04-0.796,0.059-1.371,0.125-1.681c0.072-0.312,0.129-0.365,0.143-0.149  c0.086-0.915,0.176-1.532,0.256-2.16c0.041-0.314,0.084-0.633,0.123-0.999c0.037-0.37,0.078-0.786,0.066-1.313  c0,0-0.024,0.101-0.05,0.201c-0.027,0.099-0.056,0.197-0.056,0.197s0.002-0.117-0.004-0.294c-0.003-0.089-0.008-0.193-0.018-0.305  c-0.011-0.105-0.021-0.217-0.033-0.329c-0.039-0.417-0.048-0.849-0.048-0.849s-0.021,0.351-0.023,0.697  c-0.001,0.173,0.004,0.339,0.007,0.492c0,0.144-0.004,0.238-0.004,0.238c-0.019-0.221-0.052-0.428-0.072-0.579  c-0.021-0.16-0.035-0.301-0.045-0.425c-0.019-0.249-0.021-0.431-0.02-0.567c0.003-0.272,0.027-0.362,0.052-0.462  c0.024-0.102,0.05-0.214,0.059-0.537c0.004-0.324,0.02-0.856-0.081-1.829l-0.107,0c-0.055-0.744-0.112-1.264-0.235-1.738  c-0.06-0.205-0.116-0.4-0.176-0.608c-0.054-0.197-0.11-0.405-0.171-0.653c-0.012-0.638,0.047-0.091,0.133,0.217  c0.044,0.155,0.084,0.256,0.072,0.144c-0.003-0.116-0.091-0.432-0.052-1.172c-0.019-0.265,0.009-0.694,0.069-1.193  c0.059-0.498,0.131-1.068,0.149-1.569c0.05-0.558,0.077-0.345,0.073,0.101c-0.004,0.346-0.055,0.813-0.106,1.159  c0.08-0.503,0.136-0.958,0.15-1.353c0.009-0.229,0.007-0.455-0.001-0.632c-0.008-0.175-0.014-0.333-0.019-0.479  c-0.024-0.582-0.051-0.949-0.075-1.3c-0.05-0.704-0.075-1.339,0.155-3.559c-0.03,1.528,0.295-1.25,0.038,2.343  c0.174-1.705,0.121-3.389,0.242-5.218c0,0-0.039,0.297-0.075,0.594c-0.043,0.295-0.085,0.591-0.085,0.591  c0.023-0.652,0.074-1.392,0.08-1.751l-0.102,0.151c0.076-1.129-0.043-2.19-0.217-3.118c-0.045-0.231-0.09-0.455-0.137-0.671  c-0.024-0.108-0.048-0.215-0.071-0.32c-0.025-0.112-0.054-0.221-0.085-0.328c-0.121-0.423-0.271-0.797-0.406-1.141  c0.088,0.243,0.068,0.265-0.004,0.149C51.143,8.535,51,8.285,50.795,8.003c-0.204-0.282-0.474-0.592-0.76-0.85  c-0.285-0.258-0.583-0.461-0.8-0.569c0.413,0.286,0.876,0.677,1.283,1.155c0.407,0.475,0.754,1.039,0.972,1.606  c0.109,0.277,0.188,0.577,0.233,0.816c0.052,0.245,0.091,0.469,0.119,0.663c0.055,0.388,0.066,0.653,0.031,0.72  c-0.086-0.425-0.148-0.829-0.225-1.229l-0.061-0.298c-0.023-0.104-0.051-0.208-0.082-0.311c-0.063-0.205-0.145-0.405-0.248-0.597  c0.119,0.28,0.227,0.644,0.276,0.963c0.05,0.309,0.08,0.575,0.084,0.687c-0.08-0.347-0.149-0.669-0.247-0.986  c-0.1-0.312-0.223-0.597-0.359-0.859c-0.273-0.523-0.595-0.954-0.933-1.321c-0.341-0.366-0.703-0.67-1.093-0.917  c-0.39-0.244-0.809-0.432-1.271-0.527c0,0,0.207,0.034,0.498,0.132c0.291,0.097,0.661,0.267,0.997,0.484  c0.339,0.215,0.645,0.474,0.856,0.682c0.213,0.208,0.34,0.361,0.34,0.361c-0.019-0.154-0.258-0.432-0.602-0.714  C49.46,6.81,49.015,6.531,48.61,6.288c-0.784-0.281-1.58-0.382-2.318-0.175c-0.738,0.202-1.326,0.729-1.652,1.336  c0.097-0.157,0.16-0.236,0.223-0.313c0.063-0.077,0.128-0.153,0.259-0.291c-0.332,0.344-0.542,0.717-0.69,1.061  c-0.146,0.346-0.231,0.67-0.293,0.963c-0.113,0.587-0.134,1.063-0.142,1.472c-0.01,0.818,0.049,1.376,0.04,2.03  c-0.009,1.285,0.05,3.717-0.074,2.842c0.007,0.527-0.051-0.564-0.084-1.556c-0.033-0.991-0.04-1.887-0.165-0.939  c0.132,0.947,0.14,1.913,0.188,3.159c0.045,1.244,0.139,2.77,0.463,4.787c-0.107-1.785,0.266,1.026,0.155-0.566  c0.049,0.481,0.089,0.855,0.104,1.135c0.014,0.307,0.045,0.527,0.064,0.713c0.038,0.37,0.061,0.606,0.07,1.019  c0,0,0.035,0.136,0.062,0.271c0.026,0.134,0.039,0.27,0.039,0.27c-0.011,0.076-0.023,0.134-0.037,0.208  c-0.016,0.076-0.026,0.147-0.035,0.215c-0.017,0.136-0.025,0.257-0.029,0.363c-0.007,0.213,0.002,0.373,0.01,0.498  c0.016,0.251,0.029,0.375,0.054,0.538c0.026,0.163,0.069,0.368,0.186,0.759c0.057,0.197,0.136,0.437,0.232,0.739  c0.047,0.151,0.099,0.317,0.152,0.499c0.052,0.183,0.106,0.381,0.138,0.581c-0.04-0.273-0.052-0.343-0.018-0.284  c0.03,0.058,0.094,0.229,0.131,0.409c0.04,0.18,0.051,0.368,0.056,0.458c0.004,0.091,0.026,0.09,0.051-0.123  c0.004,0.464-0.219,0.894-0.41,1.383c-0.094,0.243-0.168,0.496-0.212,0.74c-0.034,0.227-0.065,0.44-0.094,0.637l0.024-0.137  c-0.1,0.947-0.232,1.604-0.336,2.125c-0.104,0.52-0.186,0.9-0.253,1.276c-0.069,0.376-0.135,0.747-0.19,1.254  c-0.053,0.507-0.095,1.156-0.021,2.066c0,0-0.021-0.088-0.042-0.178c-0.021-0.09-0.04-0.18-0.04-0.18  c0.022,0.546,0.104,1.119,0.194,1.666c0.045,0.276,0.091,0.558,0.148,0.849c0.062,0.292,0.12,0.59,0.269,0.926  c0.076,0.166,0.183,0.354,0.375,0.517c0.095,0.08,0.212,0.148,0.332,0.188c0.152,0.049,0.158,0.042,0.196,0.047  c0.066,0.001,0.134,0.005,0.194,0.032c0.063,0.025,0.105,0.088,0.108,0.156c0.005,0.067-0.014,0.134-0.036,0.196  c-0.011,0.031-0.024,0.062-0.038,0.091l-0.023,0.045l-0.031,0.059c-0.063,0.117-0.135,0.234-0.214,0.353l-0.12,0.179l-0.064,0.095  c-0.023,0.034-0.063,0.094-0.087,0.143c-0.057,0.111-0.116,0.178-0.205,0.245c-0.088,0.066-0.205,0.122-0.351,0.171  c-0.146,0.051-0.315,0.094-0.507,0.155c-0.19,0.065-0.407,0.14-0.636,0.315c-0.221,0.17-0.381,0.422-0.452,0.686l-0.033,0.121  c-0.012,0.034-0.021,0.067-0.035,0.101c-0.023,0.066-0.053,0.133-0.086,0.197c-0.129,0.259-0.318,0.501-0.542,0.716  c-0.449,0.436-1.021,0.752-1.614,1.003c-0.29,0.119-0.569,0.202-0.808,0.205c-0.229,0.007-0.455-0.06-0.717-0.175  c0.086,0.036,0.376,0.146,0.613,0.144c0.284,0.011,0.626-0.126,0.626-0.126c-0.1,0.038-0.318,0.111-0.557,0.108  c-0.12-0.002-0.249-0.022-0.405-0.076c-0.079-0.024-0.163-0.059-0.253-0.098c-0.046-0.021-0.093-0.043-0.14-0.064  c-0.073-0.032-0.147-0.063-0.228-0.088c-0.316-0.106-0.692-0.113-1.005-0.037c-0.316,0.073-0.576,0.197-0.802,0.313  c-0.447,0.239-0.793,0.441-1.04,0.513c0.097-0.019,0.255-0.067,0.416-0.139c0.163-0.071,0.335-0.161,0.459-0.231  c-0.006,0.034-0.131,0.145-0.362,0.293c-0.115,0.072-0.257,0.152-0.423,0.21c-0.068,0.025-0.201,0.055-0.321,0.086  c-0.125,0.032-0.26,0.067-0.403,0.104c0,0-0.117,0.009-0.233,0.018c-0.119,0.013-0.235,0.024-0.235,0.024s-0.115,0.054-0.229,0.108  c-0.113,0.056-0.227,0.119-0.227,0.119c-0.226,0.089-0.392,0.175-0.517,0.261c-0.126,0.082-0.21,0.17-0.25,0.219  c-0.086,0.108-0.021-0.033,0.053-0.126c0.071-0.092,0.14-0.158,0.058-0.109c-0.021,0.014-0.053,0.038-0.099,0.08  c-0.045,0.047-0.11,0.105-0.181,0.252c-0.072,0.138-0.113,0.423,0.032,0.663c0.014,0.025,0.03,0.05,0.047,0.078  c0.007,0.011,0.015,0.022,0.022,0.035c0.014,0.024,0.027,0.05,0.037,0.074c0.034,0.026,0.073,0.078,0.083,0.16  c0.008,0.083-0.008,0.176-0.115,0.323c-0.103,0.141-0.281,0.293-0.5,0.431c-0.057,0.034-0.114,0.068-0.173,0.101  c-0.055,0.03-0.117,0.06-0.187,0.094c-0.141,0.063-0.283,0.129-0.43,0.196c-0.592,0.263-1.244,0.537-1.893,0.784  c-0.161,0.06-0.323,0.12-0.484,0.179l-0.223,0.078l-0.137,0.045c-0.092,0.028-0.183,0.056-0.275,0.076  c-0.045,0.009-0.091,0.018-0.139,0.018c-0.022,0-0.046,0-0.066-0.013c-0.017-0.015-0.028-0.035-0.038-0.054  c-0.039-0.098-0.026-0.201-0.019-0.298c0.014-0.097,0.024-0.191,0.035-0.28c0.004-0.034,0.008-0.067,0.012-0.101  c0.002-0.042,0.006-0.084,0.009-0.125c0.004-0.083,0.004-0.167-0.002-0.25c-0.011-0.167-0.057-0.351-0.132-0.482  c-0.08-0.144-0.146-0.25-0.203-0.343c-0.116-0.415,0.022-0.143,0.252,0.321c0.228,0.455,0.063,1.058,0.059,1.149  c-0.038,0.197-0.024,0.36,0.02,0.378c0.013,0.01,0.021,0.001,0.024-0.023c0.004-0.023,0.004-0.071,0.019-0.139  c-0.014-0.103-0.006-0.183,0.001-0.3c0.007-0.096,0.015-0.203,0.025-0.331c0.003-0.092,0.005-0.197-0.008-0.321  c-0.014-0.126-0.046-0.28-0.119-0.424c-0.029-0.061-0.078-0.161-0.133-0.271c0.07,0.079,0.135,0.147,0.21,0.235  c0.018,0.043,0.047,0.084,0.068,0.127c-0.018-0.052-0.042-0.103-0.056-0.133c-0.574-1.16-0.952-2.222-1.566-3.121  c-0.593-0.87-1.208-1.529-1.742-2.207c-0.267-0.336-0.519-0.675-0.739-1.032c-0.111-0.178-0.213-0.362-0.305-0.553  c-0.045-0.095-0.089-0.192-0.128-0.292c-0.045-0.108-0.088-0.218-0.133-0.328c-0.378-0.899-0.929-1.786-1.592-2.765l0.091,0.171  c-0.495-0.69-0.869-1.215-1.144-1.664c-0.273-0.448-0.455-0.813-0.584-1.156c-0.099-0.139-0.021,0.054,0.047,0.216  c0.069,0.159,0.119,0.288-0.053,0.018c-0.291-0.668-0.549-1.33-0.702-1.994c-0.036-0.157-0.076-0.355-0.124-0.53  c-0.048-0.179-0.1-0.353-0.154-0.525c-0.111-0.342-0.234-0.671-0.363-0.986c-0.521-1.267-1.132-2.311-1.569-3.135  c-0.02,0.146-0.511-0.449-1.055-0.885c-0.955-0.994-2.099-1.471-3.377-0.74c-0.993,0.568-1.237,2.159-1.236,2.186  C12.905,30.728,12.906,30.73,12.907,30.733z M22.972,49.849c-0.001,0-0.002,0.001-0.002,0.002s0,0.001,0,0.001s0,0-0.001,0  C22.97,49.852,22.97,49.85,22.972,49.849C22.972,49.849,22.972,49.849,22.972,49.849z M22.968,49.857L22.968,49.857v-0.001V49.857  L22.968,49.857z M22.969,49.855L22.969,49.855L22.969,49.855L22.969,49.855z M22.972,49.849c-0.001,0.001-0.001,0.003-0.002,0.003  l0,0C22.97,49.852,22.971,49.85,22.972,49.849L22.972,49.849z M22.887,49.876C22.886,49.875,22.886,49.875,22.887,49.876  L22.887,49.876L22.887,49.876z M69.24,26.222c0.135-0.825,0.189-1.263,0.449-1.778C69.656,24.811,69.354,25.745,69.24,26.222z   M62.572,63.052c-0.283-0.073-0.543-0.153-0.754-0.266c-0.107-0.06-0.191-0.118-0.256-0.186c-0.066-0.069-0.114-0.153-0.136-0.24  c0.095,0.238,0.3,0.342,0.53,0.448C62.182,62.907,62.401,62.979,62.572,63.052z M37.717,42.904  c-0.068-0.227-0.121-0.448-0.171-0.667c0.014,0.012,0.026,0.023,0.039,0.034c0.123,0.11,0.242,0.181,0.284,0.026l0.029,0.212  c0.11-0.097-0.146-0.658-0.024-0.807l-0.264-0.655c0.057,0.013,0.115-0.113,0.15-0.005c-0.025-0.171-0.044-0.321,0.068-0.111  c-0.313-0.793-0.493-1.666-0.881-2.475c-0.368-0.772-0.766-1.519-1.262-2.174c-0.046-0.101,0.029-0.072,0.078-0.052  c-0.268-0.19-0.085-0.283-0.151-0.435l-0.388-0.28c-0.039-0.183,0.081-0.092,0.108-0.123c-0.375-0.73-0.909-1.353-1.052-2.005  c-0.141-0.167-0.128,0.106-0.251-0.142c0.162,0.138,0.11-0.058,0.046-0.266c-0.051-0.209-0.115-0.431-0.011-0.341  c-0.298-0.184-0.294-0.927-0.555-0.748c-0.08-0.326,0.072-0.293,0.115-0.206c-0.021-0.093-0.041-0.182-0.054-0.268  c-0.011-0.086-0.019-0.169-0.023-0.251c-0.009-0.163-0.007-0.318,0.038-0.475c-0.02-0.051-0.029-0.184-0.036-0.36  c0-0.171,0.014-0.38,0.043-0.594c0.053-0.428,0.175-0.879,0.119-1.08c0.07,0.268,0.076,0.005,0.206-0.192l0.061,0.233l0.144-0.494  c0.045-0.099,0.049-0.129,0.038-0.131c0.021-0.089-0.075-0.001-0.04-0.231c0.097-0.351,0.165-0.354,0.278-0.54l0.007,0.062  l0.066-0.253c0.037-0.184-0.266,0.628-0.2,0.013c0.04,0.004,0.272-0.335,0.192-0.521c-0.027,0.325-0.12,0.266-0.137,0.147  c0,0,0.003-0.027,0.008-0.068c0.004-0.042,0.006-0.097,0.009-0.152c0.003-0.056,0.007-0.111,0.009-0.152  c0.004-0.042,0.002-0.07,0.002-0.07s0.04,0.038,0.077,0.077c0.038,0.04,0.076,0.08,0.076,0.08c0.017-0.164,0-0.333-0.003-0.5  c-0.024-0.165-0.031-0.335-0.074-0.498l-0.058-0.246l-0.057-0.219c-0.038-0.143-0.076-0.288-0.114-0.432  c-0.081-0.289-0.13-0.588-0.192-0.887c-0.056-0.3-0.092-0.607-0.128-0.915c-0.141,0.031-0.084-0.878-0.283-0.751l0.024,0.047  c0.008,0.308-0.175-0.076-0.164-0.331c0.082,0.258,0.179-0.483,0.25,0.151l0.068-0.498c0.379-0.292-0.1-1.311-0.006-2.071  c-0.013,0.054-0.034,0.069-0.045,0.076c0.044-0.341,0.006-0.704-0.06-1.036c-0.067-0.321-0.152-0.565-0.133-0.649l-0.12-0.042  c0.032-0.303,0.039-0.476,0.013-0.654c-0.028-0.179-0.087-0.366-0.227-0.692c-0.016,0.014-0.021,0.1-0.075,0.002  c0.022-0.185,0.054-0.378-0.153-0.824l-0.025,0.032c0,0-0.072-0.177-0.146-0.353c-0.082-0.175-0.166-0.348-0.166-0.348  c-0.149,0.082-0.25-0.229-0.415-0.555c-0.079-0.165-0.181-0.331-0.286-0.453c-0.115-0.117-0.226-0.193-0.335-0.167  c-0.021-0.087-0.128-0.243-0.278-0.386c-0.146-0.146-0.332-0.278-0.452-0.358c-0.009,0.012-0.03,0.018-0.079,0.011  c-0.058-0.077-0.152-0.126-0.261-0.169c-0.111-0.033-0.24-0.051-0.367-0.051c-0.26,0.006-0.51,0.071-0.686,0.101  c-0.243,0.004-0.16-0.071-0.063-0.149c-0.234,0.108-0.543,0.193-0.827,0.28c-0.135,0.05-0.263,0.097-0.365,0.141  c-0.098,0.047-0.168,0.091-0.191,0.129c-0.261,0.213-0.021,0.176-0.042,0.29c-0.371,0.293-0.151-0.291-0.526,0.252  c0.062-0.044,0.168-0.13,0.144-0.079c-0.076,0.096-0.118,0.292-0.164,0.47c-0.039,0.187-0.076,0.362-0.178,0.427l0.047-0.158  c-0.083,0.069-0.151,0.165-0.208,0.267c-0.029,0.051-0.056,0.102-0.077,0.154c-0.018,0.055-0.033,0.11-0.05,0.16  c-0.062,0.205-0.11,0.354-0.229,0.33l-0.073-0.085c-0.071,0.174-0.093,0.287-0.117,0.357c-0.026,0.072-0.048,0.105-0.068,0.141  c-0.021,0.034-0.042,0.068-0.07,0.14c-0.028,0.072-0.066,0.18-0.081,0.371l0.02-0.004c-0.105,0.31-0.028,0.5-0.211,0.625  l-0.006-0.114c-0.037,0.199-0.054,0.308-0.066,0.418c-0.007,0.055-0.014,0.11-0.021,0.178c-0.001,0.066-0.003,0.146-0.005,0.248  c-0.019,0.046-0.053,0.244-0.02,0.301c-0.159,0.018-0.041,0.953,0.005,1.125c-0.016-0.321,0.063-0.174,0.13-0.092  c-0.091,0.197-0.1,0.334,0.029,0.575c-0.167,0.063-0.349,0.146-0.265,0.659c0.008-0.082,0.003-0.211,0.048-0.166  c0.042,0.046,0.028,0.169,0.023,0.212c0.047,0.042,0.04-0.124,0.112-0.08c-0.094,0.373,0.109,0.589,0.169,1.082  c0.015-0.166,0.08-0.042,0.153-0.001c-0.188,0.087,0.331,0.609,0.035,0.492c0.194,0.449,0.348,1.031,0.473,1.544  c0.062,0.256,0.11,0.494,0.166,0.689c0.047,0.195,0.094,0.346,0.151,0.43c0.094,0.088,0.007,0.355,0.016,0.509l0.087-0.028  c-0.07,0.229-0.079,0.312-0.097,0.409c-0.015,0.096-0.028,0.203-0.121,0.461c0.112-0.212,0.159-0.123,0.229,0.106l-0.207,0.357  l0.129,0.083c-0.063,0.146-0.058,0.32-0.049,0.493c-0.16,0.141-0.175,0.75-0.249,0.86c0.186,0.172-0.022,0.496,0.171,0.613  c-0.019,0.063-0.031,0.143-0.03,0.231c-0.096-0.074-0.191-0.095-0.118,0.07c0.002,0.015,0.003,0.027,0.005,0.042l0.118,0.051  c0.012,0.175,0.059,0.351,0.092,0.465c-0.028-0.047-0.063-0.101-0.105-0.156c0.039,0.068,0.073,0.131,0.117,0.188  c0.008,0.022,0.018,0.044,0.023,0.058c0-0.011-0.004-0.024-0.009-0.037c0.065,0.091,0.109,0.191,0.146,0.344  c0.222,0.255,0.303,0.513,0.403,0.797c0.083,0.282,0.169,0.552,0.354,0.766c-0.049-0.068-0.096-0.171-0.07-0.213  c0.035,0.106,0.08,0.209,0.128,0.309c0.041,0.103,0.08,0.202,0.118,0.298c0.071,0.193,0.111,0.381,0.092,0.533l-0.102-0.011  c-0.009,0.348-0.021,0.63,0.005,0.923l-0.111,0.025c0.04,0.218,0.018,0.556,0.064,0.895c0.035,0.334,0.094,0.645,0.228,0.762  c-0.069,0.123,0.142,0.586,0.16,0.835l0.096,0.044c0.091,0.311,0.099,0.511,0.116,0.702c0.313,0.594,0.263,1.217,0.386,1.757h0.025  c0,0,0.052,0.563,0.059,0.575c0.041-0.17-0.027,0.127,0.034,0.301c-0.003,0.202,0.106,0.493,0.222,0.691c0,0,0.028,0.09,0.057,0.181  c0.025,0.091,0.059,0.179,0.059,0.179c-0.07-0.416,0.124-0.007,0.229-0.017l-0.001,0.249c0.077,0.075,0.024-0.17,0.101-0.011  c-0.003,0.169,0.157,0.608,0.112,0.779c-0.031-0.013-0.072-0.059-0.115-0.117c0-0.021-0.002-0.019-0.003-0.005  c-0.004-0.004-0.007-0.008-0.011-0.014c0.003,0.007,0.005,0.01,0.01,0.018c-0.003,0.021-0.007,0.058-0.015,0.074  c0.123,0.27,0.047,0.183,0,0.188c0.261,0.262,0.232,0.469,0.494,0.64c-0.317-0.245,0.276,0.708,0.018,0.58  c0.237,0.17,0.068,0.154,0.253,0.25c-0.169-0.305-0.164-0.679-0.2-0.965l0.187,0.221c0.103-0.232-0.286-0.548-0.285-0.723  c-0.003,0.118,0.127,0.333,0.168,0.327l-0.154-0.02c-0.192-0.346-0.197-0.681-0.229-0.963c0.128,0.233-0.025-0.329,0.127-0.18  l0.052,0.2c0.022,0.021,0.036,0.019,0.043,0.001c0.248,0.696,0.531,1.402,0.802,2.074c-0.094,0.094,0.034,0.547-0.106,0.459  c0.109,0.148,0.156,0.058,0.249,0.414c0.011,0.244-0.236-0.208-0.318-0.281c0.055,0.276,0.022,0.288-0.012,0.311  c0.23,0.151,0.552,0.209,0.532-0.044c0.049,0.125,0.097,0.247,0.144,0.367c-0.052-0.072-0.045,0.037,0.01,0.172l0.051-0.008  c-0.001-0.012-0.005-0.022-0.009-0.032c0.904,2.297,2.205,1.615,4.234,1.718c-0.43-0.021-0.051-0.002,0.117,0.006  C38.072,45.588,38.505,45.561,37.717,42.904z M27.285,26.727c-0.014,0.004-0.026,0.013-0.038,0.024  C27.253,26.679,27.263,26.72,27.285,26.727z M31.466,42.8c0.059,0.148,0.116,0.294,0.175,0.438  C31.529,43.097,31.473,42.922,31.466,42.8z M31.415,42.679c0.006,0.01,0.01,0.021,0.015,0.032c-0.003,0.002-0.004,0.003-0.005,0.004  L31.415,42.679z M29.596,39.16c-0.002,0.004-0.001,0.007-0.002,0.011C29.534,39.037,29.497,38.97,29.596,39.16z M29.45,37.418  c-0.02-0.371,0.018-0.688,0.097-0.876c0.135,0.624,0.265,1.216,0.351,1.681c0.002,0.003,0.003,0.006,0.004,0.009  c-0.02-0.049-0.037-0.087-0.055-0.112c0.059,0.125,0.087,0.368,0.073,0.492l-0.124-0.289c0.057,0.246,0.2,0.415,0.262,0.778  c-0.101-0.038-0.139,0.254-0.332,0.013c-0.309-0.672,0.074-0.637-0.129-1.449C29.607,37.584,29.494,37.866,29.45,37.418z   M29.066,34.674c-0.006-0.095,0.012-0.205,0.041-0.309c0.02,0.112,0.04,0.228,0.063,0.346  C29.138,34.686,29.094,34.655,29.066,34.674z M28.588,32.266c0.046-0.059,0.16-0.094,0.291-0.104  c0.012,0.136,0.023,0.279,0.034,0.432l-0.166,0.064l0.169-0.004c0.01,0.139,0.02,0.284,0.033,0.441  c-0.019-0.005-0.036-0.018-0.055-0.042C28.798,32.914,28.605,32.305,28.588,32.266z M27.987,29.529  c0.12,0.208,0.224,0.397,0.313,0.575c-0.017,0.246-0.056,0.465-0.087,0.587l-0.085-0.382l-0.105-0.055  C27.953,30.027,27.958,29.768,27.987,29.529z M27.503,25.633c0.03-0.043,0.065-0.094,0.104-0.148  c-0.003,0.103-0.007,0.206-0.013,0.308c-0.076-0.022-0.146-0.04-0.196-0.015C27.397,25.778,27.438,25.72,27.503,25.633z   M26.385,19.049c0.005,0.042,0.012,0.082,0.017,0.123c-0.009,0.04-0.018,0.083-0.025,0.118c0.011-0.019,0.021-0.04,0.033-0.06  c0.011,0.081,0.023,0.162,0.035,0.241c-0.027,0.003-0.057-0.02-0.088-0.085c0.005-0.027,0.012-0.061,0.02-0.096  c-0.048,0.09-0.086,0.147-0.118,0.09c0,0,0-0.127,0.006-0.255c0.004-0.127,0.009-0.254,0.009-0.254  C26.295,18.916,26.338,18.979,26.385,19.049z M34.107,28.018l0.003,0.087C34.064,28.145,34.022,28.186,34.107,28.018z   M38.259,42.837c-0.04-0.108,0.061-0.095,0.073-0.116C38.364,42.912,38.233,42.838,38.259,42.837z M38.3,45.129  c0,0,0.038-0.067,0.066-0.142c0.021-0.077,0.042-0.155,0.042-0.155l0.042-0.04c0,0-0.032,0.089-0.063,0.178  C38.354,45.057,38.297,45.128,38.3,45.129z M37.218,45.789c0.048,0.002,0.098,0.003,0.148,0.005  c0.057-0.001,0.118-0.008,0.179-0.015c0.121-0.01,0.229-0.059,0.317-0.104c0.003,0.002,0.038-0.064,0.038-0.064  c-0.007,0.001,0.237,0.007,0.234-0.006c-0.207,0.167-0.532,0.23-0.793,0.236c-0.234,0.001-0.423-0.013-0.56,0.009  C36.869,45.771,37.023,45.783,37.218,45.789z M35.855,46.113c0.053,0.003,0.074-0.003,0.068-0.001c-0.004,0-0.02,0.003-0.034,0.007  C35.876,46.117,35.865,46.115,35.855,46.113L35.855,46.113z M35.883,45.535l-0.027,0.578l0,0l0,0l-0.001,0.038l0,0L35.883,45.535z   M35.89,46.119c0.035,0.006,0.09,0.014,0.164,0.024c-0.021,0.005-0.027,0.009-0.04,0.013c-0.018-0.001-0.04-0.002-0.068-0.003  c-0.014,0-0.028-0.001-0.047-0.001c-0.009-0.001-0.018,0-0.028,0l0,0C35.852,46.135,35.869,46.125,35.89,46.119z M35.854,46.151  L35.854,46.151L35.854,46.151L35.854,46.151L35.854,46.151z M35.872,46.153c0,0,0.001,0.001,0.003,0.003l-0.014-0.001h-0.004  l-0.001-0.001c-0.001,0.001,0,0-0.001-0.001h-0.001l0,0v-0.002l0,0l0.002,0.001L35.872,46.153z M36.014,46.157  C36.194,46.17,35.895,46.203,36.014,46.157L36.014,46.157z M35.608,46.114c0,0,0.057,0.014,0.112,0.028  c0.055,0.015,0.109,0.031,0.109,0.031c-0.046,0.033-0.243,0.04-0.17,0.067C35.431,46.21,35.477,46.175,35.608,46.114z M35.393,46  l0.118,0.022C35.49,46.038,35.459,46.043,35.393,46z M35.626,46.04c-0.021-0.046,0.029-0.004,0.133,0.032  c0,0-0.061-0.015-0.123-0.025s-0.125-0.024-0.125-0.024C35.543,45.996,35.547,45.945,35.626,46.04z M36.066,45.593  c-0.004,0.025-0.009,0.09-0.014,0.13c-0.003,0.023-0.007,0.046-0.01,0.068c-0.002,0.035-0.006,0.069-0.008,0.102  c-0.003,0.024-0.006,0.048-0.007,0.072c-0.004,0.025-0.006,0.049-0.009,0.074c-0.013,0.002-0.025,0.003-0.038,0.005  c-0.001,0-0.004,0-0.004,0c-0.043-0.006-0.076-0.012-0.1-0.019c-0.032-0.006-0.004-0.018-0.007-0.022  c0.007-0.005-0.017-0.017-0.003-0.018c0.02-0.006,0.05-0.012,0.09-0.016c0.01-0.001,0.021-0.003,0.031-0.006l0.018-0.004  l0.008-0.002l0.005-0.045c0.002-0.011,0.003-0.025,0.005-0.038c-0.004,0.021-0.007,0.041-0.01,0.063  c0.004-0.023,0.006-0.042,0.01-0.064c0.004-0.044,0.011-0.09,0.016-0.139c0.006-0.041,0.013-0.082,0.019-0.125  c0.006-0.029,0.013-0.059,0.02-0.091l0.005-0.022c0-0.001,0,0,0,0c-0.01,0.051-0.013,0.065-0.01,0.049  c0.002-0.012,0.006-0.028,0.009-0.046l0,0l0.001-0.003c0-0.001-0.001,0.003-0.002,0.009v0.001  C36.077,45.535,36.072,45.565,36.066,45.593z M36.021,46.041l0.006-0.048c-0.001-0.008,0.001-0.018,0.002-0.027  c0.015-0.125,0.027-0.248,0.039-0.345c0.006-0.043,0.01-0.082,0.014-0.115c0.001-0.005,0.001-0.009,0.002-0.013  c-0.006,0.056-0.013,0.113-0.019,0.172c-0.014,0.124-0.028,0.254-0.043,0.393c-0.03-0.001-0.069-0.003-0.11-0.005  c0.023-0.003,0.047-0.005,0.07-0.008c0.01-0.001,0.02-0.002,0.03-0.003L36.021,46.041z M36.083,45.495  C36.083,45.494,36.083,45.495,36.083,45.495c0-0.001,0-0.001,0-0.002C36.083,45.493,36.083,45.493,36.083,45.495z M36.696,45.683  l0.183-0.042l0.158,0.052C36.956,45.67,36.683,45.734,36.696,45.683z M34.108,46.223c-0.015-0.033,0.091-0.088,0.109-0.131  l0.19,0.039C34.313,46.154,34.124,46.173,34.108,46.223z M33.931,46.025c0.264,0.008,0.301,0.026,0.287,0.067  c0,0-0.07-0.015-0.141-0.03C34.004,46.042,33.931,46.025,33.931,46.025z M35.348,45.825c0,0,0.106,0.029,0.21,0.059  c0.105,0.029,0.209,0.063,0.209,0.062c0,0.001-0.123-0.033-0.248-0.062c-0.125-0.031-0.253-0.059-0.253-0.059H35.348z   M32.736,45.902L32.869,46c0,0,0.041,0.037,0.083,0.075c0.043,0.038,0.086,0.074,0.086,0.074s-0.08-0.062-0.155-0.123  C32.809,45.964,32.736,45.902,32.736,45.902z M31.758,45.27c-0.047-0.096-0.075-0.188-0.105-0.274  c0.043,0.084,0.088,0.168,0.163,0.25c0.078,0.081,0.17,0.161,0.281,0.242c0.036,0.072-0.026,0.061-0.076,0.04  c-0.051-0.019-0.102-0.041-0.061,0.032C31.878,45.462,31.813,45.364,31.758,45.27z M31.652,44.995  c-0.045-0.089-0.081-0.182-0.089-0.281C31.588,44.799,31.616,44.892,31.652,44.995z M33.131,46.009l0.153-0.06  c0.038,0.01,0.082,0.02,0.126,0.031C33.382,45.994,33.322,46.036,33.131,46.009z M33.012,45.872  c0.018,0.007,0.048,0.018,0.092,0.034c0.045,0.01,0.106,0.024,0.186,0.042l-0.005,0.002c-0.069-0.017-0.127-0.03-0.173-0.042  C33.066,45.892,33.032,45.879,33.012,45.872z M33.441,45.985c-0.012,0-0.021-0.002-0.031-0.004  C33.425,45.975,33.431,45.973,33.441,45.985z M34.665,45.931c-0.162-0.048-0.491-0.099-0.174-0.187  C34.606,45.807,34.423,45.857,34.665,45.931z M33.609,45.89c0,0,0.079,0.006,0.159,0.011c0.076,0,0.154-0.001,0.154-0.001  c-0.008,0.025-0.066,0.058,0.018,0.089c0,0-0.082-0.021-0.164-0.044C33.692,45.921,33.609,45.89,33.609,45.89z M33.46,45.838  l0.149,0.052l-0.119-0.008L33.46,45.838z M31.989,45.059c0.034,0.037,0.066,0.073,0.099,0.109c-0.004,0.039,0.016,0.14-0.127-0.023  c-0.062-0.143-0.145-0.273-0.234-0.424c0.059,0.074,0.118,0.149,0.177,0.225L31.989,45.059z M32.541,45.639  c-0.008-0.007-0.02-0.015-0.026-0.022C32.537,45.621,32.553,45.628,32.541,45.639z M31.099,43.301l0.023,0.016l-0.013,0.011  L31.099,43.301z M32.123,45.181c0.109,0.097,0.155,0.175,0.207,0.251c-0.088-0.078-0.158-0.171-0.242-0.264  C32.09,45.15,32.095,45.143,32.123,45.181z M31.389,44.272c0.046,0.059,0.095,0.123,0.148,0.191  C31.473,44.415,31.376,44.307,31.389,44.272z M32.455,45.607c0.006,0.006,0.011,0.012,0.018,0.018  C32.419,45.611,32.43,45.606,32.455,45.607z M32.455,45.607c-0.056-0.062-0.09-0.12-0.125-0.175c0.066,0.066,0.129,0.13,0.185,0.185  C32.493,45.613,32.472,45.609,32.455,45.607z M31.321,43.798l0.031,0.109c-0.062-0.115-0.128-0.186-0.253-0.319  c-0.028-0.189-0.013-0.237,0.01-0.26l0.213,0.512L31.321,43.798z M31.706,44.127c0.141,0.322,0.041,0.258,0.104,0.472  c-0.263-0.535,0.035,0.179-0.219-0.178c0.042,0.112,0.089,0.21,0.135,0.301c-0.063-0.091-0.127-0.177-0.189-0.258  c0.004,0.003,0.008,0.006,0.012,0.009l0.002,0.003v-0.001c0.023,0.018,0.033,0.021,0.014,0c0-0.003-0.003-0.009-0.004-0.013  c0.009-0.009,0.014-0.024,0.019-0.04c-0.102-0.147-0.036-0.014-0.019,0.04c-0.004,0.004-0.007,0.01-0.01,0.013l-0.002-0.001  c-0.019,0-0.196-0.565-0.196-0.565c0.064,0.11,0.113,0.255,0.227,0.513C31.611,44.288,31.546,44.005,31.706,44.127z M34.197,45.541  c-0.017,0.008-0.015,0.016-0.017,0.022C34.146,45.55,34.133,45.542,34.197,45.541z M34.207,45.678l-0.039-0.014  c-0.176,0.027-0.41,0.086-0.476,0.117c0.072-0.066,0.139-0.12,0.279-0.19c0.039,0.015,0.072,0.059,0.202,0.049  c0.112-0.028,0.001-0.046,0.007-0.077C34.257,45.588,34.454,45.633,34.207,45.678z M33.692,45.781  c-0.006,0.005-0.012,0.011-0.018,0.016C33.668,45.794,33.677,45.789,33.692,45.781z M32.629,45.369c0,0-0.092-0.091-0.185-0.182  c-0.047-0.043-0.078-0.099-0.109-0.134c-0.027-0.038-0.047-0.063-0.047-0.063s0.058,0.033,0.116,0.065  c0.028,0.015,0.056,0.031,0.077,0.042c0.023,0.008,0.039,0.015,0.039,0.015l-0.043,0.029C32.707,45.306,32.623,45.314,32.629,45.369  z M31,43.071l0.035,0.2l-0.072,0.092L31,43.071z M30.756,42.78l-0.009-0.164l0.082,0.11L30.756,42.78z M26.915,28.518l0.108,0.049  c0.01,0.155,0.057,0.268,0.104,0.359C26.98,28.739,26.815,28.509,26.915,28.518z M29.091,36.925  c-0.071-0.155-0.115-0.281-0.145-0.394C29.043,36.716,29.158,36.856,29.091,36.925z M30.768,12.798  c0.087,0.053,0.112,0.094,0.103,0.111C30.789,12.848,30.738,12.813,30.768,12.798z M28.847,36.063  c0.016,0.026,0.026,0.053,0.041,0.081c0.01,0.122,0.021,0.245,0.059,0.388C28.876,36.396,28.815,36.235,28.847,36.063z   M37.761,41.043c0.014,0.039,0.024,0.109,0.031,0.224C37.789,41.214,37.773,41.126,37.761,41.043z M29.935,40.529  C29.972,40.65,29.932,40.552,29.935,40.529L29.935,40.529z M30.527,40.907c-0.018,0.018-0.025,0.04-0.025,0.063  C30.503,40.942,30.509,40.919,30.527,40.907z M30.041,40.692c-0.027-0.041-0.055-0.088-0.084-0.141  C29.975,40.573,30,40.616,30.041,40.692z M29.989,40.684c0.019,0.04,0.032,0.07,0.047,0.1  C30.025,40.804,30.013,40.795,29.989,40.684z M29.935,40.529c-0.012-0.036-0.026-0.085-0.054-0.168  c0.022,0.07,0.048,0.133,0.076,0.19C29.943,40.53,29.935,40.521,29.935,40.529z M30.274,41.501c0.043,0.124,0.082,0.159,0.121,0.215  c-0.024,0.003-0.077-0.032-0.048,0.048L30.274,41.501z M30.771,41.867c0.092-0.014,0.125,0.154,0.18,0.335  c-0.004-0.011-0.008-0.021-0.012-0.032C30.842,42.27,30.806,42.067,30.771,41.867z M30.964,42.243  c0.018,0.056,0.037,0.112,0.063,0.164C30.988,42.446,30.99,42.344,30.964,42.243z M29.87,40.11c0.05,0.08-0.092,0.091-0.04,0.129  C29.754,40.372,29.769,39.617,29.87,40.11z M31.103,41.898l-0.128-0.021l0.042-0.131L31.103,41.898z M30.494,40.541l0.133,0.272  c-0.02,0.003-0.017,0.042-0.008,0.089C30.552,40.729,30.461,40.545,30.494,40.541z M30.619,40.901  c0.034,0.091,0.065,0.177,0.069,0.233C30.67,41.086,30.633,40.98,30.619,40.901z M29.674,37.261c-0.011,0.082,0,0.203-0.046,0.162  l-0.036-0.327C29.624,37.056,29.665,37.138,29.674,37.261z M38.077,42.119c0,0,0.023,0.058,0.049,0.111  c0.026,0.054,0.053,0.108,0.053,0.108l-0.112-0.128L38.077,42.119z M38.09,42.793c-0.008-0.054-0.022-0.159-0.064-0.19l0.153,0.017  L38.09,42.793z M69.528,12.637c-0.024-0.014-0.049-0.027-0.075-0.041C69.453,12.597,69.483,12.611,69.528,12.637z M69.528,12.637  c0.311,0.17,0.495,0.32,0.629,0.437c0,0-0.161-0.141-0.339-0.259C69.712,12.742,69.6,12.677,69.528,12.637z M71.064,18.545  l-0.061,0.124C71.064,18.426,71.096,18.327,71.064,18.545z M62.807,59.134c0.097-0.348,0.174-0.699,0.174-0.699  c-0.063,0.317-0.171,0.771-0.38,1.389C62.601,59.823,62.713,59.481,62.807,59.134z M58.877,37.904  c0.131-0.686,0.206-0.875,0.229-0.904c0.026-0.029,0.02,0.099,0.057,0.051c0,0-0.079,0.211-0.15,0.424  C58.945,37.691,58.877,37.904,58.877,37.904z M36.201,47.22c-0.072,0.02-0.158,0.043-0.224,0.062  C35.948,47.274,36.064,47.249,36.201,47.22z M66.063,82.461c0.012-0.017,0.021-0.029,0.035-0.048  C65.99,82.588,66.009,82.558,66.063,82.461z M51.01,8.602c0.031,0.051,0.141,0.245,0.248,0.508  c-0.023-0.043-0.048-0.092-0.075-0.136C51.031,8.639,50.976,8.551,51.01,8.602z M77.106,53.463c0.013-0.029,0.019-0.046,0.03-0.073  c-0.009,0.03-0.021,0.07-0.031,0.099L77.106,53.463z M77.117,54.357l-0.801,1.458c0.408-0.966,0.553-1.552,0.789-2.327  c0,0,0.001,0.219,0.002,0.437C77.111,54.142,77.117,54.357,77.117,54.357z M71.242,15.261c-0.002-0.017-0.004-0.034-0.005-0.053  C71.237,15.208,71.238,15.228,71.242,15.261z M71.991,64.47c-0.141,0.095-0.218,0.195-0.296,0.272  c0.057-0.073,0.119-0.148,0.199-0.215c0.076-0.064,0.176-0.131,0.298-0.14c0.125-0.005,0.218,0.055,0.313,0.116  c0.014,0.01,0.031,0.021,0.045,0.031c-0.106-0.065-0.182-0.122-0.283-0.136C72.159,64.383,72.06,64.425,71.991,64.47z M51.829,24.69  c-0.015,0.102-0.03,0.194-0.043,0.269C51.801,24.867,51.814,24.779,51.829,24.69z M55.184,44.327c-0.166-0.06-0.27-0.106-0.27-0.106  C55.014,44.262,55.102,44.296,55.184,44.327z M71.242,15.261c0.01,0.11,0.014,0.207,0.016,0.284  C71.252,15.416,71.246,15.317,71.242,15.261z M72.57,64.547c-0.002-0.001-0.004-0.002-0.006-0.004  c-0.004-0.002-0.008-0.007-0.014-0.008C72.559,64.54,72.563,64.543,72.57,64.547z M62.52,59.904  c0.035-0.141,0.029-0.187,0.022-0.225C62.625,59.497,62.65,59.5,62.52,59.904z M59.221,36.895l-0.021,0.081  c-0.016,0.042-0.027,0.064-0.037,0.076L59.221,36.895z M71.166,74.256c-0.1,0.087-0.277,0.224-0.509,0.454  c0.298-0.308,0.501-0.466,0.625-0.582C71.299,74.132,71.268,74.168,71.166,74.256z M34.837,89.895c0,0,0.25,0.157,0.525,0.263  c0.272,0.11,0.564,0.158,0.564,0.158s-0.104-0.014-0.256-0.053s-0.35-0.106-0.538-0.195c-0.382-0.177-0.715-0.435-0.715-0.435  s0.102,0.071,0.207,0.137C34.729,89.836,34.837,89.895,34.837,89.895z M51.679,93.567c0,0-0.206-0.09-0.403-0.198  c-0.197-0.107-0.381-0.232-0.381-0.232c0.457,0.228,0.506,0.207,0.779,0.28L51.679,93.567z M56.184,93.82  c0.205,0.056,2.602-0.876,0.362,0.003C56.354,93.886,54.494,94.184,56.184,93.82z M85.102,54.023  c0.723-1.069,1.039-1.706,0.863-1.102c-0.533,0.953-0.63,1.031-0.709,1.104c-0.041,0.034-0.078,0.063-0.162,0.188  c-0.08,0.124-0.223,0.35-0.41,0.755c-0.121,0.193,0.012-0.133,0.196-0.474C85.059,54.157,85.254,53.815,85.102,54.023z   M85.102,54.023c-0.111,0.171-0.231,0.351-0.356,0.543C84.937,54.257,85.039,54.112,85.102,54.023z M69.268,28.839l0.125,1.082  l-0.032,0.111C69.318,29.812,69.301,29.476,69.268,28.839z M67.982,12.237c0,0,0.086-0.03,0.174-0.056s0.178-0.045,0.178-0.045  s0.1,0.011,0.198,0.029c0.097,0.017,0.192,0.04,0.192,0.04s-0.186-0.013-0.373-0.003C68.166,12.207,67.982,12.237,67.982,12.237z   M62.475,24.5c0.012-0.086,0.023-0.174,0.037-0.264C62.501,24.321,62.486,24.411,62.475,24.5z M62.142,26.167  c0.03-0.157,0.075-0.345,0.11-0.492c0.037-0.156,0.071-0.315,0.104-0.478c0.046-0.234,0.085-0.469,0.118-0.698  c-0.075,0.541-0.129,0.965-0.178,1.251C62.234,26.105,62.201,26.275,62.142,26.167z"></path>
</svg>