<svg version="1.1" style="shape-rendering:geometricPrecision;text-rendering:geometricPrecision;image-rendering:optimizeQuality;" viewBox="0 0 846.66 1058.325" x="0px" y="0px" fill-rule="evenodd" clip-rule="evenodd" xmlns="http://www.w3.org/2000/svg">
  <defs>
    <style type="text/css">
   
    .fil0 {fill:black}
   
  </style>
  </defs>
  <g>
    <path class="fil0" d="M 598.55 67.96 L 624.82 67.96 C 646.83 67.96 664.84 85.96 664.84 107.97 L 664.84 612.24 C 688.18 628.87 703.4 656.15 703.4 686.98 C 703.4 737.63 662.34 778.69 611.69 778.69 C 561.04 778.69 519.98 737.63 519.98 686.98 C 519.98 656.15 535.2 628.87 558.54 612.24 L 558.54 107.97 C 558.54 85.96 576.54 67.96 598.55 67.96 Z M 345.08 355.91 L 407.09 391.71 L 407.09 420.66 L 437.94 420.66 L 472.98 370.07 L 499.59 388.43 L 477.27 420.66 L 514.47 420.66 L 514.47 453.09 L 477.27 453.09 L 499.59 485.32 L 472.98 503.69 L 437.94 453.09 L 407.09 453.09 L 407.09 482.04 L 345.08 517.84 L 345.08 545.95 L 395.67 580.99 L 377.31 607.6 L 345.08 585.28 L 345.08 622.48 L 312.65 622.48 L 312.65 585.28 L 280.42 607.6 L 262.06 580.99 L 312.65 545.95 L 312.65 517.84 L 250.64 482.04 L 250.64 453.09 L 219.79 453.09 L 184.75 503.69 L 158.14 485.32 L 180.46 453.09 L 143.26 453.09 L 143.26 420.66 L 180.46 420.66 L 158.14 388.43 L 184.75 370.07 L 219.79 420.66 L 250.64 420.66 L 250.64 391.71 L 312.65 355.91 L 312.65 327.8 L 262.06 292.76 L 280.42 266.16 L 312.65 288.47 L 312.65 251.27 L 345.08 251.27 L 345.08 288.47 L 377.31 266.16 L 395.67 292.76 L 345.08 327.8 L 345.08 355.91 Z M 330.27 379.23 L 379.5 407.65 L 379.5 466.11 L 330.28 494.52 L 327.45 494.52 L 278.24 466.11 L 278.24 407.65 L 327.46 379.23 L 330.27 379.23 Z M 399.33 343.48 L 446.9 295.91 L 469.83 318.84 L 422.26 366.41 L 399.33 343.48 Z M 235.47 366.41 L 187.9 318.84 L 210.83 295.91 L 258.4 343.48 L 235.47 366.41 Z M 258.4 530.27 L 210.83 577.84 L 187.9 554.91 L 235.47 507.34 L 258.4 530.27 Z M 422.26 507.34 L 469.83 554.91 L 446.9 577.84 L 399.33 530.27 L 422.26 507.34 Z M 328.87 397.34 L 363.11 417.11 L 363.11 456.65 L 328.87 476.42 L 294.63 456.65 L 294.63 417.11 L 328.87 397.34 Z M 578.826 108.709 L 641.91 108.709 L 641.91 526.5 L 581.47 526.5 L 578.826 108.709 Z"></path>
  </g>
</svg>