<svg viewBox="0 0 100 100" version="1.1" style="" x="0px" y="0px" fill-rule="evenodd" clip-rule="evenodd" stroke-linejoin="round" stroke-miterlimit="1.41421" xmlns="http://www.w3.org/2000/svg">
  <defs></defs>
  <clipPath id="a">
    <rect x="0" y="0" width="100" height="100"></rect>
  </clipPath>
  <g clip-path="url(#a)" style="" transform="matrix(1.201166, 0, 0, 1.201166, -9.189041, -10.46028)">
    <path d="M10.33,58.238L39.551,10.178C39.729,9.941 39.979,9.807 40.311,9.827C40.806,9.958 40.437,9.838 41.077,10.325C41.899,10.935 42.822,11.403 43.786,11.745C45.684,12.419 47.75,11.912 49.608,11.011C49.608,11.011 49.794,10.911 50.08,10.922L89.219,16.409C89.9,16.569 90.006,16.829 89.804,17.448L87.781,22.144L87.619,25.914L90.309,26.322C90.309,26.322 91.086,26.545 90.862,27.297L68.691,81.295C68.448,81.756 68.238,81.746 67.925,81.729L58.142,80.255C58.098,80.801 58.076,81.354 58.067,81.916C58.028,84.896 58.034,87.876 58.056,90.856C58.056,90.856 57.768,91.626 57.243,91.249L53.192,87.981L49.572,90.085C48.863,90.351 48.825,89.037 48.76,88.076C48.557,85.001 48.14,81.761 48.49,78.801L22.69,74.914C22.13,74.789 22.023,74.645 21.699,74.505C20.935,74.179 20.166,73.863 19.394,73.557C18.941,73.378 18.488,73.202 18.033,73.029C16.171,72.319 14.068,71.715 12.349,72.593C12.053,72.753 11.993,72.729 11.91,72.727C10.955,72.707 10.275,71.213 9.598,69.87C7.511,65.732 6.56,59.791 10.012,58.333C10.119,58.288 10.225,58.256 10.33,58.238ZM51.203,74.127C48.638,77.797 49.428,83.011 49.758,88.009L49.811,88.792L52.986,86.944C53.3,86.783 53.426,86.896 53.552,86.987L57.05,89.808C57.036,86.801 57.026,83.79 57.087,80.78C57.111,79.955 57.138,79.823 57.198,79.376C57.389,77.952 57.798,76.563 58.352,75.24L58.42,75.082L51.213,74.113C51.21,74.118 51.207,74.122 51.203,74.127ZM87.558,27.347L87.523,28.145C87.512,28.231 87.512,28.231 87.486,28.313L66.743,78.571C66.705,78.64 66.656,78.696 66.601,78.739C66.511,78.831 66.38,78.887 66.208,78.876L58.561,77.695C58.462,78.073 58.381,78.454 58.316,78.839L67.584,80.236L89.198,27.596L87.558,27.347ZM10.59,59.65C10.537,59.669 10.44,59.705 10.376,59.744C8.614,60.801 9.126,63.499 9.663,65.824C10.105,67.734 10.849,69.606 12.072,71.115C12.072,71.115 14.164,70.567 15.845,70.861C18.319,71.294 20.645,72.473 22.995,73.516L48.724,77.393C48.81,76.997 48.914,76.607 49.039,76.225L24.18,72.386C23.653,72.257 23.673,71.354 24.332,71.398L49.402,75.273C49.605,74.811 49.843,74.363 50.123,73.932L47.735,73.607C47.194,73.503 47.104,72.554 47.869,72.616L62.808,74.652C63.315,74.807 63.313,75.689 62.62,75.632L59.5,75.208C59.352,75.649 59.088,76.187 58.87,76.737L65.789,77.807L65.789,68.113L22.919,60.726C20.123,62.151 16.955,63.628 14.233,62.294C12.887,61.634 11.691,60.686 10.59,59.65ZM86.679,24.703L68.06,67.922C67.899,68.216 67.766,68.404 67.244,68.364L66.78,68.284L66.78,75.881L86.537,28.015L86.679,24.703ZM11.806,58.698C12.382,59.1 12.985,59.692 13.693,60.23C15.094,61.133 16.638,61.586 18.521,60.977C19.859,60.544 21.148,59.958 22.398,59.307C22.398,59.307 22.673,59.183 22.924,59.205L66.916,66.786L88.038,17.757L50.098,12.439C48.604,13.144 45.948,14.075 43.41,13.203C42.34,12.835 41.32,12.33 40.392,11.682L11.806,58.698ZM62.157,36.2C60.588,39.072 58.918,41.892 57.345,44.762C57.066,45.216 56.211,44.963 56.447,44.325C58.55,39.999 61.07,35.889 63.382,31.671C63.534,31.425 63.537,31.394 63.875,31.414C64.13,31.455 64.304,31.664 64.314,31.903C65.632,34.015 66.807,36.214 68.055,38.369C68.305,38.838 67.539,39.351 67.209,38.901C66.01,36.991 64.932,35.009 63.814,33.05C63.459,33.756 63.095,34.457 62.722,35.154C63.999,37.216 65.146,39.357 66.362,41.457C66.612,41.926 65.846,42.439 65.516,41.988C64.329,40.099 63.262,38.138 62.157,36.2ZM50.385,36.364C49.134,38.591 47.847,40.801 46.619,43.041C46.165,43.781 45.538,43.097 45.72,42.604C47.823,38.278 50.343,34.168 52.656,29.95C52.807,29.704 52.811,29.673 53.149,29.694C53.475,29.746 53.67,30.074 53.554,30.387C53.342,30.823 53.126,31.257 52.906,31.69C54.057,33.53 55.098,35.437 56.172,37.324C57.347,35.242 58.547,33.174 59.695,31.08C59.847,30.833 59.85,30.803 60.188,30.823C60.514,30.875 60.709,31.204 60.593,31.516C58.491,35.842 55.97,39.953 53.658,44.17C53.489,44.445 53.345,44.431 53.214,44.43C52.883,44.426 52.636,44.068 52.759,43.734C53.044,43.147 53.337,42.565 53.636,41.986C52.495,40.147 51.459,38.244 50.385,36.364ZM41.286,32.615C39.683,35.562 37.968,38.452 36.355,41.394C36.069,41.86 35.235,41.558 35.457,40.958C37.56,36.632 40.08,32.521 42.393,28.304C42.544,28.057 42.548,28.027 42.885,28.047C43.212,28.099 43.406,28.428 43.291,28.74C42.828,29.693 42.345,30.635 41.848,31.57C42.984,33.397 44.015,35.287 45.081,37.157C46.513,34.573 48.011,32.023 49.432,29.433C49.583,29.186 49.587,29.156 49.924,29.176C50.251,29.228 50.446,29.557 50.33,29.87C48.227,34.196 45.707,38.306 43.394,42.524C42.94,43.263 42.314,42.579 42.496,42.087C43.135,40.773 43.812,39.479 44.51,38.195C43.38,36.369 42.351,34.481 41.286,32.615ZM52.359,32.748C51.903,33.617 51.434,34.479 50.958,35.338C52.094,37.165 53.125,39.056 54.191,40.925C54.649,40.063 55.118,39.207 55.594,38.354C54.461,36.518 53.43,34.621 52.359,32.748Z"></path>
  </g>
</svg>