<svg version="1.1" x="0px" y="0px" viewBox="0 0 100 100" enable-background="new 0 0 100 100" xmlns="http://www.w3.org/2000/svg">
  <defs></defs>
  <g style="" transform="matrix(0.859457, 0, 0, 0.859457, 7.347504, 6.627908)">
    <g>
      <path d="M83.23,39.848c0.435,0,0.878-0.083,1.306-0.258l8.056-3.298c1.763-0.722,2.607-2.737,1.885-4.5    c-0.722-1.764-2.736-2.607-4.5-1.886l-8.056,3.298c-1.764,0.722-2.607,2.737-1.886,4.5C80.582,39.04,81.87,39.848,83.23,39.848z"></path>
      <path d="M66.946,81.507c-0.737-1.757-2.758-2.585-4.517-1.848c-1.757,0.737-2.585,2.758-1.848,4.516l3.337,7.961    c0.554,1.322,1.834,2.117,3.184,2.117c0.445,0,0.896-0.086,1.333-0.269c1.757-0.736,2.584-2.758,1.848-4.516L66.946,81.507z"></path>
      <path d="M49.928,22.621c-15.252,0-27.662,12.283-27.662,27.379c0,15.096,12.409,27.378,27.662,27.378    c15.252,0,27.66-12.282,27.66-27.378C77.588,34.903,65.18,22.621,49.928,22.621z M49.928,70.478    c-11.447,0-20.761-9.186-20.761-20.478c0-11.292,9.314-20.479,20.761-20.479c11.447,0,20.759,9.187,20.759,20.479    C70.687,61.292,61.375,70.478,49.928,70.478z"></path>
      <path d="M37.57,79.659c-1.755-0.737-3.779,0.091-4.516,1.849l-3.336,7.962c-0.736,1.757,0.091,3.779,1.849,4.515    c0.436,0.183,0.887,0.27,1.332,0.27c1.349,0,2.63-0.796,3.184-2.118l3.337-7.962C40.156,82.417,39.328,80.395,37.57,79.659z"></path>
      <path d="M92.591,63.708l-8.056-3.297c-1.761-0.722-3.778,0.122-4.5,1.886c-0.722,1.763,0.123,3.778,1.886,4.5l8.056,3.297    c0.427,0.175,0.87,0.258,1.306,0.258c1.359,0,2.647-0.809,3.194-2.145C95.199,66.444,94.354,64.43,92.591,63.708z"></path>
      <path d="M62.429,20.34c0.436,0.183,0.888,0.269,1.333,0.269c1.349,0,2.629-0.795,3.184-2.117l3.336-7.961    c0.736-1.758-0.091-3.779-1.848-4.516c-1.756-0.737-3.779,0.091-4.516,1.848l-3.337,7.961    C59.844,17.582,60.672,19.604,62.429,20.34z"></path>
      <path d="M18.078,33.204l-8.055-3.298c-1.765-0.722-3.779,0.122-4.5,1.886c-0.722,1.763,0.122,3.778,1.885,4.5l8.055,3.298    c0.428,0.175,0.871,0.258,1.306,0.258c1.359,0,2.648-0.808,3.194-2.144C20.686,35.941,19.842,33.925,18.078,33.204z"></path>
      <path d="M33.054,18.492c0.554,1.322,1.835,2.117,3.184,2.117c0.445,0,0.897-0.086,1.333-0.269    c1.757-0.736,2.585-2.758,1.848-4.516l-3.337-7.961c-0.736-1.757-2.758-2.585-4.516-1.848c-1.757,0.736-2.584,2.758-1.848,4.516    L33.054,18.492z"></path>
      <path d="M15.463,60.41l-8.055,3.297c-1.763,0.722-2.607,2.737-1.885,4.5c0.547,1.335,1.835,2.144,3.194,2.144    c0.436,0,0.878-0.083,1.306-0.258l8.055-3.297c1.764-0.722,2.608-2.737,1.886-4.5C19.243,60.532,17.228,59.689,15.463,60.41z"></path>
    </g>
  </g>
</svg>