<svg data-name="Layer 1" viewBox="0 0 512 640" x="0px" y="0px" xmlns="http://www.w3.org/2000/svg">
  <defs></defs>
  <title>Radio</title>
  <path d="M359.482,153H359V131.322A8.506,8.506,0,0,0,350.74,123H329V19.055A8.241,8.241,0,0,0,320.776,11H295.883A7.948,7.948,0,0,0,288,19.055V123H265.919A8.213,8.213,0,0,0,258,131.322V153H183.419A35.139,35.139,0,0,0,148,188.239V199H124.858A7.8,7.8,0,0,0,117,206.907v70.07A7.9,7.9,0,0,0,124.858,285H148V465.287A35.542,35.542,0,0,0,183.419,501H359.482A35.625,35.625,0,0,0,395,465.287V188.239A35.222,35.222,0,0,0,359.482,153ZM304,27h9v96h-9ZM274,139h69v14H274ZM133,269V215h15v54ZM379,465.287A19.608,19.608,0,0,1,359.482,485H183.419A19.524,19.524,0,0,1,164,465.287V188.239A19.122,19.122,0,0,1,183.419,169h81.229c.415,0,.837.11,1.271.11s.855-.11,1.27-.11H349.47c.415,0,.837.11,1.27.11s.856-.11,1.271-.11h7.471A19.206,19.206,0,0,1,379,188.239Z"></path>
  <path d="M271.451,196.959a83.706,83.706,0,1,0,83.7,83.706A83.8,83.8,0,0,0,271.451,196.959Zm0,151.411a67.706,67.706,0,1,1,67.7-67.7A67.782,67.782,0,0,1,271.451,348.37Z"></path>
  <path d="M227,274a8,8,0,0,0,0,16h89a8,8,0,0,0,0-16Z"></path>
  <path d="M245,262h53a8,8,0,0,0,0-16H245a8,8,0,0,0,0,16Z"></path>
  <path d="M298,302H245a8,8,0,0,0,0,16h53a8,8,0,0,0,0-16Z"></path>
  <path d="M353,390a8,8,0,0,0-8-8H198a8,8,0,0,0-8,8v64a8,8,0,0,0,8,8H345a8,8,0,0,0,8-8Zm-16,56H206V398H337Z"></path>
</svg>