<svg data-name="Layer 1" viewBox="0 0 512 640" x="0px" y="0px" xmlns="http://www.w3.org/2000/svg">
  <defs></defs>
  <title>Radio</title>
  <path d="M 391.225 185.47 L 390.595 185.47 L 390.595 157.155 C 390.47 151.236 385.724 146.455 379.806 146.285 L 351.411 146.285 L 351.411 10.521 C 351.279 4.679 346.512 0.01 340.67 0 L 308.157 0 C 302.401 0.047 297.783 4.766 297.86 10.521 L 297.86 146.285 L 269.02 146.285 C 263.19 146.494 258.595 151.323 258.677 157.155 L 258.677 185.47 L 161.265 185.47 C 135.723 185.265 114.93 205.954 115.003 231.496 L 115.003 245.551 L 84.777 245.551 C 79.065 245.508 74.435 250.168 74.513 255.879 L 74.513 347.399 C 74.424 353.139 79.037 357.848 84.777 357.878 L 115.003 357.878 L 115.003 593.354 C 114.88 619.017 135.602 639.912 161.265 640 L 391.225 640 C 416.913 639.923 437.679 619.043 437.615 593.354 L 437.615 231.496 C 437.628 205.928 416.792 185.254 391.225 185.47 Z M 318.758 20.898 L 330.513 20.898 L 330.513 146.285 L 318.758 146.285 Z M 279.575 167.183 L 369.697 167.183 L 369.697 185.47 L 279.575 185.47 Z M 95.411 336.98 L 95.411 266.449 L 115.003 266.449 L 115.003 336.98 Z M 416.718 593.354 C 416.793 607.507 405.377 619.038 391.225 619.102 L 161.265 619.102 C 147.137 619.027 135.764 607.481 135.901 593.354 L 135.901 231.496 C 135.814 217.489 147.26 206.149 161.265 206.367 L 267.36 206.367 C 267.902 206.367 268.454 206.511 269.02 206.511 C 269.587 206.511 270.136 206.367 270.679 206.367 L 378.148 206.367 C 378.69 206.367 379.241 206.511 379.806 206.511 C 380.372 206.511 380.925 206.367 381.467 206.367 L 391.225 206.367 C 405.255 206.139 416.743 217.464 416.718 231.496 Z" style=""></path>
  <path d="M 276.245 242.886 C 192.083 242.878 139.475 333.983 181.551 406.873 C 223.626 479.763 328.829 479.771 370.916 406.888 C 380.515 390.266 385.567 371.41 385.567 352.216 C 385.5 291.865 336.596 242.957 276.245 242.886 Z M 276.245 440.647 C 208.17 440.653 165.617 366.963 199.649 308.005 C 233.681 249.046 318.775 249.039 352.819 307.992 C 360.584 321.439 364.671 336.694 364.67 352.222 C 364.611 401.033 325.056 440.588 276.245 440.647 Z" style=""></path>
  <path d="M 218.187 343.51 C 210.143 343.51 205.116 352.218 209.138 359.183 C 211.004 362.417 214.453 364.408 218.187 364.408 L 334.432 364.408 C 342.476 364.408 347.503 355.701 343.481 348.735 C 341.614 345.501 338.165 343.51 334.432 343.51 Z" style=""></path>
  <path d="M 241.697 327.837 L 310.921 327.837 C 318.966 327.837 323.992 319.129 319.971 312.163 C 318.104 308.931 314.655 306.939 310.921 306.939 L 241.697 306.939 C 233.653 306.939 228.626 315.646 232.648 322.612 C 234.514 325.845 237.965 327.837 241.697 327.837 Z" style=""></path>
  <path d="M 310.921 380.082 L 241.697 380.082 C 233.653 380.082 228.626 388.789 232.648 395.755 C 234.514 398.988 237.965 400.98 241.697 400.98 L 310.921 400.98 C 318.966 400.98 323.992 392.272 319.971 385.306 C 318.104 382.073 314.655 380.082 310.921 380.082 Z" style=""></path>
  <path d="M 382.758 495.02 C 382.758 489.25 378.08 484.572 372.31 484.572 L 180.31 484.572 C 174.538 484.572 169.86 489.25 169.86 495.02 L 169.86 578.612 C 169.86 584.383 174.538 589.062 180.31 589.062 L 372.31 589.062 C 378.08 589.062 382.758 584.383 382.758 578.612 Z M 361.86 568.163 L 190.758 568.163 L 190.758 505.47 L 361.86 505.47 Z" style=""></path>
</svg>